<mxfile modified="2023-05-25T13:52:06.492Z" host="app.diagrams.net" agent="Mozilla/5.0 (Windows NT 10.0; Win64; x64) AppleWebKit/537.36 (KHTML, like Gecko) Chrome/113.0.0.0 Safari/537.36" etag="ENWK_gxTLH-stFiHBj_l" version="21.3.4" type="github">
  <diagram id="Ht1M8jgEwFfnCIfOTk4-" name="Page-1">
    <mxGraphModel dx="1118" dy="1553" grid="1" gridSize="10" guides="1" tooltips="1" connect="1" arrows="1" fold="1" page="1" pageScale="1" pageWidth="1169" pageHeight="827" math="0" shadow="0">
      <root>
        <mxCell id="0" />
        <mxCell id="1" parent="0" />
        <mxCell id="mgwrqRaxkrJux66Nl93q-22" style="edgeStyle=orthogonalEdgeStyle;rounded=0;orthogonalLoop=1;jettySize=auto;html=1;exitX=1;exitY=0.5;exitDx=0;exitDy=0;" parent="1" source="mgwrqRaxkrJux66Nl93q-10" target="mgwrqRaxkrJux66Nl93q-19" edge="1">
          <mxGeometry relative="1" as="geometry" />
        </mxCell>
        <mxCell id="mgwrqRaxkrJux66Nl93q-10" value="Back-end" style="shape=image;verticalLabelPosition=bottom;labelBackgroundColor=#FFFFFF;verticalAlign=top;aspect=fixed;imageAspect=0;image=data:image/png,iVBORw0KGgoAAAANSUhEUgAAATYAAACjCAMAAAA3vsLfAAAAdVBMVEX///9tsz9rsjxpsTlkrzBosTf+//2Fv2Bkry/J4rra6tD6/Pjq8+R9u1SSxXW+3KygzYWp0ZGLwmhxtUZ8ulby+O7w9+u62qeOw23m8t/E3rR3uE3V6MrQ5sOYyHrg7tex1Zykzoqw1ZpfrSWbyX9crB2Iv2i77q+wAAATeElEQVR4nO1d6ZKjvA4NXoBAVgjZSEKWvt/7P+JlseVNhsx0kq6e4vyYmnSIsQ+yLMmymExGjBgxYsSIESNGjBgxYsSIESNGjBgxYsRbMM3mX8lPd+K3IVzElHC2/Ol+/DLs4qAGYdVPd+RXISxJQ1vAbz/dk1+F9NGyFtDFT/fkVyEkQtq+fronvwtfvKUtPv90R34XtjknhLCv8Kc78suwveR5uUt/uhu/D+l2FLURI0aMeDGKKvkDVNt39CHdzop3tOtHOKthLsTh810Iz5eA8j8ByY5PNl/tLps8z+f79fFgdLCqjYcLOOHFdDUPaqs/z+4n26AId5s8WooVc7tclPn82l2T3ud5Jo3dtL4sm8ofzY6rqMzz6LLzOPphco/qO9b3jK5wyXYVBJvjcyM7zznt3JTnQVn+hL2UHjec0aZvpH4sZH5TQzjR2lTl/NR+KO45462r1Fw33xmPJFwwMGqLW9C2x/bNzdN5/Q2Nr9299u2HdfshWdRty/tGiBfR9Ky7Y3NLmnVBu1lrP4s2Bob2xf6Us6CL10SHgaZPG7PpeijRtCO72ND2L0Hz4VxyYrRcTrVWlqxzoZb1hbm8kDUicRfftGPuokitp5WuOTce8WI20DPK181TWXQ/48ORzyJif0Nae6+8v/klp+5vWNRKXNUNMnjU4nbl9nMjbKUEbt+1QrOaQLiQX2oxzLXAURh1l/HVpNjbQ+Jz4wmHV7dnLCsmhSCb34dYSyNuN/A8aN4nb0dcimnQMDIVtLHpZI09N55J3sJ51wyJTrHWyr6JgIj/N4GjVFxG90XmDonOtUUsXaF3nKdbSdtqiDa0z0+DRn7XpiLAGiE6gWzX0Cbuy6ZLvAfAm6QtKDdaK83IUNrI/gsTBK7F5FDWmjtuqWq8F9U3ZK1BSwEOoScahZaXebMyyO7dNNroRfy50d3GyiQHCrQF2pekUT8obXAZMWWdwbpw1Vhr7ypvyy/y1gO0hXtX+/wRSOCzQ+QDIcG12haz6ngphUIxpC0QGoluvtbXVRZoE1s8EkWbPtbrxEtbewmjeR5wTWnSSHQsUZJCeJCtd7v1Xqw0kowh2s7fmqLtHXxx/HvXO5LDIlZMs/q51l0tdNq67n9V3QI7W+YwKkJnGG3tWNtlxUsb4ZtdVRuyp3WgxIJ3ejjdwJ8ouYrObZelPu0GaEs3qNL+I8SeVWEhREs3JSanPSFZ21WdNlpqK3J6gQE0q6VDGy+X8kH4aCNU2sb1ogqtCeE9wo15pC0TxZfWoQHadt8WttYuQJ9I1I2CWW5YISa1RhuPzIl+VwObObTFa2Vk+2ijJ601qWLlLIXLeGYuZ1e1TvfTNgu+L2y15YVG8qUgM48wKtpIbqtHWAo7DabTFuvC66EtNrabi1wuEWVD0wlYnNtGwE09rl7aVt9cRmV3+mjzbcYp2h6Oz5iWRGtap+1hTHmcNmIZRTClaKGPmbvPswRB7KPtu8aHRIwlE4SZ0Lxsj661QBvWRfiykVWNNm46izhtzPLEZ/DrmUYNtpSBOd1LW/ZN40OCcIyYG8wGukYmKjCDLSmwVDULima3WXKN08Yt/zOM5Bf1nWZyzBSLiwCnPbRNh4WNcMaeEEmORQxOms7n0c4mR9JGIuS3kzVXLSva+NS8CvcSSjswc5G2/0H1Cr/tbti5Sh0r0gEN1tPp6on4CKb3Q12YKadaUEunrdX6DqQ92SzTQBvJLUJw2jJH1UsyDhBNwZ/0pJLf+mm7DooR3bRsVGSYX0zvW7+jZmhT0obvqM+0NQFoc9QR7so7tK012uT/bQXYoRj0SbdPGB9Chs7x4JXshNzibEdnKFNbwUAbGnvdSi1Dddpshv+CNil5aIcnE0GKn7Zh44NCQko5LG4RFulN5vYEJ2yTmLQ97ABii0LekumT1FYFf0Eb6Dk8UpgP0PaE8cEhuLEYXnLxjMYm1m0RR8X0AGlDzWGMNtcs/o604bQNSZvH+CBcTSzFBNBGOHcCseKbEo+EzHYb6yekM1mBNnS2zHJJlUbb3Nma+YZuw12bAd029QTqNvfdQsa8XNpoeT+uS1xOmW/bIk3WEWFaII20hhWEKVHdDFGnSKPNsSz+gjYwMdCw96HfAAlRbUVY6yYnYgV0aKOtvV8scMqpPz4eHpZZoGTOClNiv1hqlsBLaQPLZo/d9thPGxr5IFw8eDEimzaInN1R3jg6fsBsOZfEtaFNFabEFhMp302w56W0gRjn2AZ51jtJC8yiIBBuCXFpo9DWDrVIPGu6wlLO1GaDTjlXyCyF0EyjuV9KWyrjIRxZww4PKQIobTdMPcVqbematmnT7HmUN9wI0SE9m8bTBNoc23+iWUeNKL6UNpBj7Lb73qA4kGqwppaWUMRlbWnTZuEVm6fDxyqE1dQsA9Oe4JaKiTUa6LW09URejrG/SxPc+Ii1HaglrtuMoMEFEVhDX6TXy8qZtWIAhrSZ925wAAemnfevpQ2ils5TPvVHdzFfSdfncrFxaCOl4k3byNBaUUZIsWGUsy/LBRCzwNBtzWfDGqhgYGQ+eTlt2oImckcE9M1whDYs8qFv28H8c+02QlTkJsH0IwFeu85xctOJk7qNby3LkUegWAsts6HbvnkxbUrcApZBfw+GWYXQhhkfmmK7gyyiXoISbMwMUZEQkZBBeLA4C+aKZaANzDS4Kc92yeFQnVdqvy/gnW31Ytq0ravmttdTVSXXPTGkwKUNi3xom08aGQhttUUM5kKBxeu4VGf/qc1IlkeX9X29gKyi1uRQdpsYbeODUd0Rk3biq2kz9LLI6pNukByG4/JgxocK3iw1vYfRVosP6PkjIm5kE7oNETNPoRs+hCnXOUK/fqeX01b4soX4XRp1V6sJLPKhHI1Ez8FAadPiEHIn1ID8UXrzBoU7A1GlziRoSiKBCLj0BF9G22S2QXmLl2BYWiZ4uEB+AOZ9GunLI06btuhiqUJqcTlvUOJIbAaO6h6eAndV5rlSt2I/hmwsOhRtF522vZc2WJ62e7dvpHbkIHxuxUewnI9umW9grhYe2pQ7scWml1IL6a5kNh8E6NAjIFVkjYKwvRYYED4D4vRGWi6OVFnMiW2IVDqSKz7Tq7kG1B0rz1o81gxLmOIkByrpsWjw0QapO3iEOFYmR3GMqJZ7Vas4spIWsRE4Sq+5ivMRzudHXWIOpPmOOsHd2qJ5NI3zsm00iZsPNHDCxV3mIzG3cw8XyuVmR5POc9sqg5dsTHWARj5Adi2PyUdbmzfaAt1kMEMyh92ibLYNa9A826khWfG27S4K5GVfZ0uJnUoWsxKLFBxJ/c1G7nnkzWXI3sQsq9slthQeruKWPIi6zCO5O2vZH+isApVhpx95aQPntEAXwYc1vnSWnGucKiP+64Ypt8l0uVyeKiQgkJ7OTta96ML5nIBkFvVleHZndT5rk+Ag/19UTc8SMQPA+LJiOWjkA5TRyRJFL21BLIYQopsMSlf2oT+6+04sySPeI1sJdxnhIGYoB992gai6TaqfNshZ23kW8ic6/2O0HRt9SONsaorvIQONY0UA8W0XqWlD2wzz0wZzH0/GJGjA1sKP0SbtlDjeL6tt29PicMweyq0xM5Y8Y5ThOkfx+WkDdXjAzW08U8DET9GWqmHSejkIyhr1f3Q/yFhUQjzhFChwprCftoAI7V54PAE76QfBj0mbGfFqzxcZfY/N/Bw00qO58faK0EebtM1Sz359T9q9xI/Rdo77cgyI3R9PqgxYE45n3keb0Ie+lGm6GDzAflanYD6M6cZxXtSYc9s69GQkPEPbxaFNNJ5mvj36wUVBqkU3BfXtSKd7NLmAMLp2cguweEUvbSp64pz5kG4pGgRpfzu8ll66+C+eZ/5mhNU14nFzSEIyRuplYX5HVLJHDUFA1slvgAhM6kzvh5ykvtTCePiMbrFvHJvsw8eVAelhetvPc9IFKcvoa4e5J1o+vgnIxnSWhEDu0q8d2uRhg9QTYnyGtkl6vl7PP1rEIyxmh/YI+2zrnR2+HCOZRnxwv6K7tG567Tjsytbz6FYS/DOFYDx5gBBXLJBZzMrLInetZDBaKtSCdry63wws9N8AjGJsqSUUi1jDYuHJ9/qX6tD5TgpJDfYHB7Aglc/VeuKCf6gymGeWggXiKjcPCBG/8Jptmx/V9K+FJzdchdifPZILmYhbj7DZgcrfDc8sBOXmmiAeVuR+gEdd/mOlIj0eJOjv8LlDWOp6j3hKRz88XhbXnzJnX4ihqGLyjLipg2kD0bY0iillyPnD16O6X+7v82094qFiJc9Ut1Ahb3RroqZVPIVuI4zmbxsOYMc45ez6tvYrPCwOI0P3US1Zgk3eGe5ZQTqDaOvxdnFL2s1pgp9weAlwAVF7DgefkwmsqZ1X3GiDfSt5bOr9NpwY1BtXIlxCNBcy6T/OxzcQW6lwewY2wuQhPfy8ySuRyWTP990CN0I0ZyjJe+apxppn2VV78p+jTabWvFGLeowQTS8cvBW2CFuonGZ8i1Q7C/NP0ebxvvUk7/SGx9p5cFU+k2cya2L7b9HmcaH4f1qo5xS5xHG+0JbELR4r1s8u/mO0VfhZZLbS3e9zRowMKxZc9KwJn6HCtY0+k7ZwdjqfT36XIW2SWE6znhBA28IZi1x/hDaPERLEZnbSYZeJBCvGg8XR2JxIkbpyDaieF6bTlnzxR1zjkWO1LSanddl+HT/44ogylx4XXFxSrs20lyKRkp8nJ09e0ivgi1vE9lsHwsNpejzWMmCPAU99teajoi1dQIIF4Y8ve2Tn8qG232jM3a3p9B4rrVE3kSniwstDbRc3rA6WR/xr+OKRT24jzZBU227IRkKgpI3ejPKatZI0HkO4eFgJqHFpSWRlx+XpYyW5v9hjebxtuzr0uQJ8oERni6k3GcA8iCtpc0gmOm9b5DA0MeN1R+SGTKqD/zmdeN+bOrwVKsT55R4UF291CyvPaOZ1NzQVmM7RM0jaIU1PZ7nY5HFp6z8N/C34PfY2YdqLdBl4KzrY54EN2tqqP+qs01VepA6kUKbVBdLa2kISedsGdFy8/8U5gf54YyqOxwjpOhf59nyL48ZTl6Hlwsqh1Gnj+Xo6vcN8JFSwApJE2H53Xt4oVAmDqaaOxga343m3hxnbJdgW2UMl5zOGLSgvBFpjVYDy+e7gMJcm67KHNPfsskYb6zR4CnUM7WKdRJxW2EJJRPnGrwTOYQvH7iTdE5HnH1ZTMECmx+S9+7Pb3hrihAXZ+jRLBXdhcTjfNrSPNMQZULSB6KRSdMT2s6qXJkOzslQz/EYmO9EMQtDArFw4PmPuthgqDFUrkmCTXVbr9dclm1PWz1lgVAPuALRpYamZ5CluRQfO6ihjSx5IF9pNvgBMX6XhLJB8Gh+kzZcHaVBHRS3f4UsD7oTygTY9tVLu/LeZntAHViBXtLIklZ++Pm5l9yRNH6TtmaJ3fwCk5gzQphd/kluEbTrEVnKim8ln/QqwzI2cS3lWVUrgJ2l7WYnFrsduMRIowRZof5RLeBtgkqJknN6cGfIlVRvTPQupYKRy+yhtnhTovwJWygJo08sZSl3Vnmw4olnPkrb/mg/y7LhRTEsKpNyl+ChtLyof23bYqXU10XxSfQqG+jsed9bwO8hTdu2hCiimpdMmF2D5sD5L22uKFbvjls3rZ2QlgLbmj3Ky4bS1HljeR5uc3J+lDS8d8xfAy2MDbfq3+CTFaOsmqdyUMmhLYvN3H6btiVqoTwGvkwi6TR8NLAnNygsnOnSHCJbX1hCU9jHXl5ydRfeHafMmQ/4ZPMXOlAGiKb6lztThgTQAJVbazRxp2uohEVVfUtiKn6bt2y+Z6CjA/UBl7mo2V6Ybs4VQrkaC9F0SZZRi1INSMlwIWcefpu0lVcV956uUc6VKxSfghLYjNnyGDqG8orNlt9LXKt2KvaA0P07bC4yQrpw+AuXKM7l5CqkUouiErPylnTWSbmq3IqizO1rBB9kImHuwY/6x9PTvGyHebVA9cNRV1kpKqRNErk4q784XQpigWI0UwCnIp0xkkvNc1a0DahsFWHwkD/G77+fAS2M2MMOU+/U6s8r1TDSW+Pw4285OEKtV0Tv1DoNFMtse1DtbmFMWmGyuX1FZDsX1X4FvGiHEjXxImEFxqhX0VZmFIZyJJYyWQaxq/sImDKjDgMZ5ySGUS5GMsWZLnJD4fXt+Cid/fPwJuCVeADPvKq0dRj/oFbTUFXpBOu0VLVoEi6hScbYd5VaDfgeWvad5B1jr2V2Ds/d2IJkQzXY9YYWQzDc23hA9Qom2JzgzA4KEfES9HZEXFD4Fwm49ORvyrGk8JWatH2LM68rZCyN2Fu7VSeThpbGhaxI7XJH1Najw2ldDpPG8fwO8K+JCo0mlFbInzHo70yRdGUeJKZs7ObiJkQFFOP8yw3tppg2AvjGH10LzitPu5atPotbw5dCRgzSKOWWNKZ9eA844pfU/c4Tqwy1vv66/ZwTfbjxnlIlLeHBzX1W0pu23zdebJzILXobquoj+ANn6idye5jjHsrssTJaXy+J29GSNh8lxvbgsVruT953O29NuVV+yPuKsFOfrpb7D9fyJYxAjRowYMWLEiBEjRowYMWLEiBEjRowYMWLEiBEjRowYMWLEiBEjRowYMeJF+D/HixDQvcn5AAAAAABJRU5ErkJggg==;fontColor=#1B1D1C;fontSize=16;" parent="1" vertex="1">
          <mxGeometry x="230.42000000000002" y="-340" width="152.15" height="80" as="geometry" />
        </mxCell>
        <mxCell id="mgwrqRaxkrJux66Nl93q-33" style="edgeStyle=orthogonalEdgeStyle;rounded=0;orthogonalLoop=1;jettySize=auto;html=1;exitX=1;exitY=0.5;exitDx=0;exitDy=0;entryX=0;entryY=0.5;entryDx=0;entryDy=0;" parent="1" source="mgwrqRaxkrJux66Nl93q-15" target="mgwrqRaxkrJux66Nl93q-17" edge="1">
          <mxGeometry relative="1" as="geometry" />
        </mxCell>
        <mxCell id="mgwrqRaxkrJux66Nl93q-15" value="Front-end" style="shape=image;verticalLabelPosition=bottom;labelBackgroundColor=#FFFFFF;verticalAlign=top;aspect=fixed;imageAspect=0;image=data:image/png,iVBORw0KGgoAAAANSUhEUgAAAOEAAADhCAMAAAAJbSJIAAAAxlBMVEX///9BuIM1SV48t4Fow5gwRVtgbXxBu4Q1RF01Rl01R100QlxBvIQ2tX41tX0wtHv0+/im28Lq9/FAqn9BsYGw38k2TWDU7uLL6ts+lnih2b86cGs3VWM4XGUnPlU6dW1QvYw2UGFddX6T1LZ3yqQ/pX1Wv5CH0K44Zmi+5dPe8uk7gHE9kHY8inQ+nHp+jpa4xsdMZHGTpKnh6ehrg4oXNE7Q3NururxDXmzr8PAZQlQQM0zd5eWbrK88hHI5aml2lZc0N1r5XN90AAAJP0lEQVR4nO2daXvaOhSEMU6ujcEsJglZachSErJ2Sbqlae///1M3t0QpAtmesSVb5vH7uWArgjOHmSO30aipqampqampqampqakBmG4QnPwDcpfhTu7QNz9hbnnaGHVdGG/P38R4uKcXeP8Avre/5+G33B01GmddB8a7aDUhNj/0yQX2P2xib9268PAb7p69vHWE/3vHG+4E2H2MP5Ir/DjG3jjYGRIrdKL/33vAbOJVG72RT9QCP6F/uvYVs4WD+efjvYu/ZusQvJPNz9QKP4Of0eBwC79Z9/3rd+Wyh7/IuwY3sfnwSCzw8QF81/Y1sYW9S/H+G8QmekdosTkhVniClpkjYoHuxtv7z5hv4rkP/rnHX+AFfgHLTNM/Z76Fs79XmDJLPEA38es3cIHfvqJbeMAscLpwiegYf6GjXzFgpZgwSnEcLV5jQBSbzjOqGM0naIFPTVQpnjv4bfYG8lWYYrN1hCoGVmzQMhMcMUqxsXSVXUYx9lDFGCPt6T1aZtp7jFLsLl/nLMRf7cDt6VdghXCZuSDuMDxbuU7EbOIQlv10xfgCiz1TZnrR6pVOiU3svANFMZikKca3Cfil9t8RZSY8VVyqf8wUmwn4OR2n/Ra+A7+FrQlTZo6VP94umU28QTubzeT29BH8Ejb9G2ILu5fqqzGK4WhqT/GGlLi3FaUQjJhic6tFMXCluGXKzCjuelPic+odoMXme8IKv6Nl5gC/Myecxl4vCvHPqTf087encEPqE0rhhgqlEAyYTbyCi02cofEJLjOMdREOYi73B0oxdvIqBqwUO5RSJC2wcUn8UOxco9/EsVoxHsfot/Bag1IIzLSnH5TXwh1S4p4UDanMjHgz77aFFhtVe4paF0GLUQpnpriUxCljaKDtaXOy2kX1J+Br/XeMdaFqSJcuTPy5nC14E1cVA1aK1pC5JSBNoNzTG7Sz+bFsaDz9AF/ZvsnkkCbBWOAe+ttnxQKHTe4J45C+RxbY2GVWuAeW0+X2FG5IW4x14a5YF2oYxciYt5nJ0lKVQjBziPb0HLUCxz8XLvETLTNNwuR205VCsM90NlnyNiJLY7qZfXSBbN6Gtqd/iw1aZlqZsjQEM4rxlrfhWZp+pRBQigGHpsLQgE3uQ/1KIZgxmwjnba8TGvfoFlJZWg8uM3OYvK3zi8rb8CztF1Nm4q0LNUzeRk5o4FMXzBYeJ1gXaqi8DTU0gp2nxhP65/AZpVjO0gDMTGi8KMZndAuNKYXATN62+Rt1n3JmaQhGDI0mukC91oUaTjHQTURpU0pBl5k5jAXeQS1wEP+AydJYpRBweRtaIiECziHNUGbmbBvJ2xCoLC3czrrARp+b0ECLTTrk1EXmLTSlGOkUoBQCptg4aHuaSusXcdXMZWZOxPjDw7aeYhNQUxfdjEoh2DeStyXDZWm4daGmBMUoSikEVN4GGxpJtHVMXTCcmZjQSICbusjWkMqMGMsGztti4bI0N3bqgoEZB3PgvC0ObuoiPUtDiFxmQiPIt4lBwExdODmVQrDNdDboAHEM7Wemm8nekC7BKIaXSzGCHeZLeKxrgY1dRvbhvE0FlaWFuRpSGSN5m2qBRrI0BGpC4zyzYuieumDYZ9zTzIpBjQH38jakMuQAcbZNDDSMAWfHTN4mYzBLQ2AscAe1wOUtPCSuQGZpCGYGiKUt1DMGnB0jedsCZrM0BOpE9Dnd2ZjO0hC4CQ1WMagsjZi6YDAzofGKuakLBsY97cAnoue0mTHgfA5pEpShQbWnVJamxbpQYy5v47I0rQ2pjCnFKF8pBNQA8RCd6Xv5d7rHgLOzzWziM6oYPnOCuavNulBC5m3YJhaXpSHsMlENmLdRWVrXmFII9E9oFDF1waD/RHTuE8y6ofI2wNCgDozkztIQuCMnqb8xqCzNsFII9E5oFDV1QaHzRLSeE8y6GTHfxNvkTaQc0tCAdaGGmtBIHAfTdYJZN1zelmCBBy0mS3MLUAoBY4EnTWhQUxeaTe4UiHNDjhf7GyNoMlmaU+QCqWdoeLEnon3m4WuhdpM7GSpvi1EM6uFrBTSkMiP83uImNMgsrTClEDAnotV5G5WlASeYddNnHvGmak+5hlR3loZATWgo8jYuSyuoIZXJl7eVnaUh5BsgLnAMODuMYnSWDI3WBfOjqWilEHATGlKx4bI0vVMXDFTeJikGpxSFNqQSXN62MKHBTV2YytIQmAmNxbyNy9IKbkhlshkadloXaqi87W1Cg5u6KK3MzKHOt73mbVSWVqB1oSZifgvPB4iDgMjStI0BZ4c/EW36BLNu6LzNriwNgcrbXhSDem68+SwNgZvQ8C2ZumCg8rbzf4s4wawb6sjJHvFvNR0YyQ+VtzE/KYrJ0hCYCQ0Cw1MXFFR7ilJyQyozMrGJ3cId0iSYcTB0gWU3pDKR/o9pkVkaAmNoQJRoXcSgexPdshe0AnMiGkDHCWbdaFUMq5RCwJyITl+hVUohoCY0kindulBDtacpWNOQyjB5WyLlZGkIVN4WT0lZGgJjaCRgh3WhZkNHsQltVAoB8wTiOIinAZcBM6ERQwlTFwwRcyJavYVmjhbqI7di2KsUgpztqZUNqQxzIlq1hVY2pDLUkZNlSpu6YKDytiUsyNIQmAHiJYodA84MNaEhb2GZUxcMzISGvIUWWhdqqLxtYQurUGbmMBMai1todUMqk6k9tbwhlclmaFSkzMzJkLfZlKUh0IphsXWhhjY0bLYu1JDuqaUOaRIRucJKNKQyVN5mX5aGwGxiWPbNZoI431b0uTRdwIZGBawLNXDeZmeWhgBOaFg2dcGAGRoVsS7UDJBN7JY/BpwDwALX+DTgMgAmNGycumBIVYzKKoUg/XxbhawLNSmGRqWsCzUp/wmf7VkaQmLeZn+WhpBgaFTOulCTkLdVIUtDiM3bKpGlIcRNaFg+dcFwqv6c9qqvFAJ13laZLA1B2Z5WvSGVUeRtFcrSEBSKsS5KIVgxNCpocifTX/6YumtUZuYsGRrVti6UyIqxVkohkCY0qjN1wbDQnq5NQyozW1jh2jSkMm+GxhpYF2r64bzYuOEalpk5r08gLuppwGXwxz2tvEOaxO6fFVZu6oJhGq5fQyoTudadYNbNwIJH6hhmPRzSJNZWCmtqampqampqampqaqrNf0nu73u6pXLjAAAAAElFTkSuQmCC;fontSize=16;fontColor=#1B1D1C;" parent="1" vertex="1">
          <mxGeometry x="240" y="-516.5" width="93" height="93" as="geometry" />
        </mxCell>
        <mxCell id="mgwrqRaxkrJux66Nl93q-17" value="" style="shape=image;verticalLabelPosition=bottom;labelBackgroundColor=default;verticalAlign=top;aspect=fixed;imageAspect=0;image=data:image/png,iVBORw0KGgoAAAANSUhEUgAAAXgAAACGCAMAAADgrGFJAAABEVBMVEX///88S0w4Rkc1QkM+qbw2Q0Q5rrtCpb06rbxAp71DpL0xtbowtro+qLwxPT4qvLk1sbtFor4ovrglwbgsurlBUVJIn77v8PAjw7gvQUIjNTdLnL/k5eXDxcbr7OyHjY0eLjCzt7fa3NxTXl/n8/YmOjzBxMQVKSrw9/kxm7kAwrPO7uze8vK95eYuQkRHV1iip6iOztXS1dV7g4Rud3ii1dvG4+llt8e93uXg7PN01s1IwcBexsZYvsSYnp9bZmd7ws6Zz9iLx9OaydiC29Ka3tk9xr5wzsyo3t5rycpBvr+L1NTF6Oix3+KY1Nh1x81lwMhWtsNOr8EAFRcAHB53u81grsaq0N6Kv9Mek7ZepMSzG/rtAAASiElEQVR4nO2dC0PayBqGQwQFlUhbkIXVAkoEtrReEKRbRdSzW3uxXratu/7/H3Iy39wvCUEiaM3bs6dkZhImT768880EqGVNrP+1Jz9GrPH15x9/vJl1H56jPO4x+RkIuP8Wk5+2/vzjt9/+QP/F5KcqxB0rJj9Nce4x+Wnqz99ExeSnJZm7p5j8VKRxj8lPRQbuMfkp6M9Xr16p2L2ir7Pu168uxP2VzB6242WbhxXlTunTV3/NumO/uGTuXH/PumO/uD76cMdG8yoeYR9Ihy89mbh/QbVfXr6MyT+IgLsRPaptv3oZk38QUe4eeYU94P4bqmLykYtzF+MeXYWPqPovUhyTj1gqd0Gous22YvKR6nDFk5k7zFk/kI2VmHyk+rCy4kcejOacYkeNYvKRiXA3sm969U2gzhSv20SkwxVRLyX459AAIj0mH7Fk7hgx5f4BNXj7Um0Rk49AH/IqVsF36hYYjVYTk59YbwLAr4DRfNTL8x9m3e1fQe2P+RUzfMD7VY33vKcvs+70r6Hmed5E/iUsShqw5/Pns+7yE9e3On31VRtiV1bwoqQBez6PcvnmzLr95HWYz39i06G2h1iOe1T6xoQ9n0cX7DAeYe+pw+Vlj+FnbhvnK6LlKEaTF4Wq8vlfgnyRamrv+Bm4w1DJHmW/OUTs8x/Pzz8KRpNXBaNuPr/8dmqdjUAbVHKx7b4DNdaMexW3Kse267qJ48peNP3wuC8z9Nw26l+EkbOd16EjoQWcNtr9CZEvNjDg0ju5fLuAVTKBf10pvUvg+sS7TiT9OFrmwomKYbD8YMSOk5q3y0+LfPEdIVyQyyn4dwbwNUodyFei6MaRgl12HKK2D/dldH98W35a5IulYPCGiK+UCoISgwh6Ica7gP9QwXhoou79QVfo0/LTIj8++Mo7kXvBjgD80ZKBO2YvZSpvdeyIOyQ1eIxYXlq+mLw/01DRHdNq1t2CDH5n4j58XvKkxzzgl+akbQN1r+VnVEf28o70NMj7gic27qrgC9zfEwnbTpQmBn+0tGQin4fAlymixYQ8uRugAeiTRZKaZXykJ0Gegk9o4LFU8DVmTYnSdmcwqOxvTdgDwt0Q8wjtN7X510Ma7EyozVfO/TGRL7qEY0KvMYP30zEN+MRmNAk8425Ej21EVvtLXm6DxtNzjt3To1k0iww8G4sTm9H07Ci3JEkjb3qW3TyXmqCk5lLkfvRoUhuGd1LwexS8uzG68Wg1cwp3A3k+kfqU/yIsX/IWaFu4cbT8f4aKDHyN5JKJ42g6ltPJq+wZeMjUxeVLETwL+EfjMqAgq0kUoCIc+IENrSPJ3pHaOYReoy9wh0S+2Wx/Y67P0V58Rs4OSQ3xGJb2N79pw/IsFAg+MRZ43LpUi6hnu8aY5+wvUaMvy7KE5ctPy7Co00RWs8uK25feYR8D+cjAV6IDX8+BieRyfuiX0DwUtWlrvr+sP/W45DnkxREc9DGQf4Tg67ncFfq7jSH5sIf0ROcOZm5+1tf8lmPanbSTE+vxga8jMBCk3wLIH0EDegOoN8Slnr68ucqJuj/5ta1BpVMZ1EZMVl5v7VQ6ncpOzS/Ji9zjJ5yv1jEYyA6Pcgy9Sh8bjflmgAsjo7/IqQpNvloClWEBpLhTcEsl27ZLJbdUee23T3FnGzfD7WT2xy4ckHJP4OPz50p+4Au2smSwaScMKnWsdXoE/S7YJvvY6myrnZsHLtdoo57j5GXBHXFkIk4lWf2Rxj03H5Y8OQlYedoReHlFrs9q1EBqlki5x+Lyyr6Rl8uuoi942jIYfKpjWfTt7X2lZ6/LtO9K19vzSAhMF20KgSoFPRjNRRD3S9nn67sq9/mw5AmGuQGKVZWW6SHbXqKkNEvY4iUKDV4xIR286TgJ2+tTJUU2ykrfarRrrny3Yu4YPXiFaMwCeVTXDMDeNQyvFzL20OQJhlTFKqS0s3T1WctOWWslX6KR4NkBRoE3HgiB36PXzlWMn763LU9zGXcgj0qaukcskWzwytfe/T7MATk85x6SPDkHe//YdJ5ldewcGLmD9U4PvEU3UsotaTb/dnpeJA9Y9FFxKQdG81Ybb7H09ZjeFVtMQBml8B7pMORpX20aLLZ4vkroWDWBuy01ZW6zP2dLNbBll0eDVwfXbfk45EBwhQfUUkrSIdio64ofzvG4pyX0PVR6qZHPYaMRXT+H/8sJHnOBJwPk0vE51NtrAXz6NDx4fB5uaXuz4Lr8dMvSY4kNBs0uuZv7+5tuiTWlaDubIFaONwsaeNsHPHvHY7Q2Rh+PJNiqfEfshytlvZWSIVzaaaR5UahYN5td8XoAb/Cf3NIV/8wNjKXoFRtUd9nyZfuScU+HiHkBvO3izLC5zofZkuTyFI43vtYgBpq1Ag2+lJxiULy2+oahwcswZfegjc3dE9ti7jL6IaroqeCNhR5Z5jG9KyhAizltocFVjzZodgl2T0MjbUEcfOmY36AD5kBiQrzDPFSA3KHkJWLFyMDPmcBTr7HFnJTdB2V+Ioy7RB5CWDEbwKdh517SpUVoCH7LW6DjdVmr3nU6JHkGfk6K2H2S4tglIYOivjInOf8xaVoSP2gUHXhjxK8xxkLrnZJ27/XSojh5vlpGBYuSSlbOY7kt1KDVHLY8M09TSL5OuRuOvOuNX7YaOyh6oFA6s5qLW0oXA5G0oaVdkgrx7mbwth942wQeKlx5lrpNWoszpU0bF/KmvWRaJk/ZwwAp+QoqEA1EdO+eNEOF53482qmu2VWyuunkaPIuThZsV1mcKdHydeFkSZEyU6+U9EN4V4NIfUNWo4En+Y8K3vimO7R/3ArZgas0LnpJBTwPe7CQXTyZRQLzMXpMs5uT1SQt5yXunrnP89ynd5D0NFTPXRQFr04C91PkhNkcZY2e2JzSdI9UiCPdQ4N/XaXNWbpUI6fCnKaHTt6PPIRzjk6qwGj48q7ZY4R7Y14T3E/pIXOc+ukI8n7g9ROmQVbSPjRKKlKC9T80eGszpZaTCQQLlV42mfRHD6tldEoLUcyMhnvM1ysNO7hUXcNOk5n0dZ91sX+THapnz0UxjAbPTmxdacohGPCGBp/wAe+YwdP45jkBCyF6w9f7JwdZM3nvD2QiJ4LxXM8j+wjwGHJZvKqeH3bQieA4B+rpM4UHT0lWte9sdMglEdI4hjelNh4XvE/EF6nX0KtNDU/Ozjz6pzcm+PNpcIVrNtR6ObgXztxjLuf5CECjnV6kruoykjyLYYep+35DLTR4BqxUfC2rSNsKzBiXhwJvHSs34IA2NDwxaXeHNxp8mMDWh93uFbIWzz1yuzxUrwXs8iiKrtfQnzpBf9PXeyHLF7x6i28w8yirmqMVPK0JAE9rVPApM3gfq2Fe45CFMto71zKr2esOZTzStP6am7M3AVUSFlHo4lwHQEfYPWWTp3WtD6JCR/w6A++rMnf/0eBTivuPC57dOZj0GjmsOKm2eso+Hv2TA05IWHCsyx4TINQmiHuSKpsNXCoLHfFbIcDzu5zhnRi8n9WwwR7fZzuu1gfLus3enPa19dx6fxcm9kMDjv51MHac1KT9gl3gnsz6D6xIjx68X8SzDjkwfSCWn5Kdpp/1lDw46Wu3fftiqLHwPCY9gjs85Oj5Ug/P/cHBq7OtkeCrYcFbLt4jhQaLJjmqozwa8cjDXY/o94JNtz1MB2KHMMdJzchoH83dKpPejwTPPD7l+Kk6XfAdh+9Bw6KsTjJQzHMcw27PL7+Tac7jhyfpeTVLh6RmFPUQ3D3wSCbwXqFXIYBPYSUqfuqIWQ05rgk8Po4GHksDj4sN4GmP0MOvjpOC/uo5DXYbQTfDbttAv+9r25IgqRmFPQR3i+KsKuXaCe/RliUrhAj4lAk8qVDBzwWCLxs+SUaq0Cp1Cb9UnQZJI4/p6+zpoBso1HAk9hDcR4JnJ/yaomyE+bWBqYCndY3iBjmo5jRI/QwiL7M/8XOcdv80iD5a4qkHQYcBJQT38OCtEiFTDvNVpGKD4H1I8HsU99aOi4+pGiYWkOdRn70eNa30Uh4f+ig17wVx994nE4b7GOCPqfmE+Uo7w/uQ4GksOPvH5IVP1yj5LOIyNH5xpqmVttWZridYhOkmfWI9Ce8SjrtVxV2eqyrl+gmTqErNOSEOGwCe3gsRgK+QLjl0X7+bkZD3xB9W3Erz2mEybUg4pXWG5AkuPE2aoBPsYbl74LGq2jnhcn7CGw3StGz4TKX6AdcibWyIeFKhgScdUcBr/RC0QY9Fe+Z7mh75TCZ7wFcNT7LyYnkbw0sf6AknrDN4dcygrv2xZzM/fPsgKzx4a9uh56d/jlj9/CgDr90erEaZ09r3AG/J3INMsJ/J8FWr3g/ESAZ84lEnM8+0Id2v9/lHCepakkTvp0xo7uOAr5UpTO2j7dtOWSFP8Wqr9+OCd4LAD1wRvK/TIHGU/Rvwewjgfr3Z7J3CjXAjs0wPL3y/RTk0Uvewh/UZayzwlk1D3klIODfmvIqy/Gk/5kvq8nik4GWvCTP41E8JJUDUJekO1Bj8w7TGZklTA04dcQ8d7wHgy/oJrzPjdhrc59c6DYAjk08QYI6thLwveMcMPtBqrAKNBdRkdLrVO8jQYRa+ukfwYbvvag4CdYi+vsZ2O7zJCsqAxuA+FnirU+ZnWe7U9jb2tgabVXruDXHQ7VATcKr7g0Flkx2Ggnd8wCu/SWbsB9cO71Gw04AyRB6pW7R9QAM328ObJvIQ1skDfXG92bsdQqgT7AvjcB/LaoTx1QPnlKueyqzEkb7+UuMm4JTL5eoDgV8T3kZ7rq6pTslnbtBmXwhZfAP4gOfXRhNKeTLjx/uYEW8VU8KtLUvxlGZValnWwSuJph/4YKuxNtnbhHAaTh5+JTsjgAdq/QDy2SQ/inbY/tnBePHOwTeUcp9IKxaEe1siq3p5RWp4f/DBES94TSPMr0zUF8AUztDrH8x3kCDJ+UHnt0m+tpMFqxFWYHrZjGf770O8W5CqjuMxcBwDeMd4wmQoxewc8pfTUL8H5uXYjjjwTQje8QNfbOATCOM0SJg8etVjvoOHR0g3s4FCsJunGeLppkE3vKrkIYYOHpfrJ7yeqmpPQGzDquCaUxZaCOBJkQaedEQFrx5A0THZrxzyVybqCwstSBEziiCge4Hg0V3RF3bxLuLB2T3p/1PF+kcpr3zH5d8N6wNbm40qg1quNjbNUIr7Ddqq/J2Dp++ozO/LtCMy+E6D9MMPfI2EQSinQaovQIJyqoLP3OLibCZjYM5GhhNlrwVPP80Db6DW97DUkN0gFevGX5x9XetsQ1bjFDo13y8iWxuDbYc04iPA1jqR0hGiLXms2CDNt8y/fIvWhjF47SvkvoJPd71vaeCBq5XVy5lQ/Q+tdGHccXVShfsF5of+meb98lhOQ4UiVSUIOeZ7f+5Qr8f74pS5Pw41qdP43RFmnS1gZST6kOycaBeECgFu8lpyiOfJnVl8uJyGqtlaXGAS4hdyxBs/8Oi6vEfNFzJ872n7zGPRJkl6xnSa3qJAnuNfQHV1n5BfgKRG2W0xxFdaf0XtNe7lNGhwXfTYoz+SAOOtSn4BBzm6H844cu9/i8+Vu7VN8tWQvx4qCMiDRPAtSAx/LhiFqn4Q6litfyM+n6ei/VHTqwBx8hj/IqfbNGFfhKoFcZ/WM433rQSdoFXvs7tCnuDHq2UtA3ioEfd5hvG+ttnZLzTY0sW4QyvR+9YLHX0Lr5bpFYsoqakL4FtnUZ7S09Da97KwEOT4f7ogWEbyi7A0byhHV6THwT9H7tZaQ8DuNO79Q3FG8mApPc2HWiipuX3e3GXw1Qn+mZx664WGHpvNv1oxuhN+0NbPk7sEvjrRzz0j8liLiy9ExNaifEVeLKLCn6TxM+Uugm9M+M9C1V+IWoT//4kqeNID1wQXtp43d2vjHzKqNhKmD2aPJZk85gpL82ctqRAnNc+bu1UcHNteXrMdyT8/ZyIPq2U/pSJ0MXqt5809YtVbGvmfWjlOalox9yilk8dwb4VyGHH/XY25R6r66uoos2nB9irx/1gRySPvsUd/mFBxk4X8KpjP6mrMPWIBeVF4Bazfottos96KuUeupkYeluZ/0C1Iav6LuUcvjfyqWAqX4SweVx9CGnmyWobBo6Rmgk/sxQqQSv4/vFrGwz/WA0mLeVgtg1c/Z923X1sqebxa9h9JamI9nBTyOIs5+3319zideWCp5GE8vSN/x3pANVd/J0IvVu9QWf2/Sb//EWu0mne/iwKP8f3ZzlgRSiYfB/sUJZG/m3VvnpPu4pCfkQTyMfep6i7mPiPdxdxnpLuY+4x0F3Ofke5i7vfQ/wE64SqLwmv5YAAAAABJRU5ErkJggg==;fontSize=16;" parent="1" vertex="1">
          <mxGeometry x="440" y="-500" width="168.36" height="60" as="geometry" />
        </mxCell>
        <mxCell id="mgwrqRaxkrJux66Nl93q-18" value="&lt;font style=&quot;font-size: 16px; background-color: rgb(255, 255, 255);&quot;&gt;CloudFront&lt;br style=&quot;font-size: 16px;&quot;&gt;&lt;br style=&quot;font-size: 16px;&quot;&gt;&lt;/font&gt;" style="sketch=0;points=[[0,0,0],[0.25,0,0],[0.5,0,0],[0.75,0,0],[1,0,0],[0,1,0],[0.25,1,0],[0.5,1,0],[0.75,1,0],[1,1,0],[0,0.25,0],[0,0.5,0],[0,0.75,0],[1,0.25,0],[1,0.5,0],[1,0.75,0]];outlineConnect=0;fontColor=#232F3E;gradientColor=#945DF2;gradientDirection=north;fillColor=#5A30B5;strokeColor=#ffffff;dashed=0;verticalLabelPosition=bottom;verticalAlign=top;align=center;html=1;fontSize=16;fontStyle=0;aspect=fixed;shape=mxgraph.aws4.resourceIcon;resIcon=mxgraph.aws4.cloudfront;" parent="1" vertex="1">
          <mxGeometry x="722.31" y="-520" width="79" height="79" as="geometry" />
        </mxCell>
        <mxCell id="upPlrhv5ZUz3ryXjEpxC-13" value="" style="edgeStyle=orthogonalEdgeStyle;rounded=0;orthogonalLoop=1;jettySize=auto;html=1;" edge="1" parent="1" source="mgwrqRaxkrJux66Nl93q-19" target="mgwrqRaxkrJux66Nl93q-25">
          <mxGeometry relative="1" as="geometry" />
        </mxCell>
        <mxCell id="mgwrqRaxkrJux66Nl93q-19" value="" style="shape=image;verticalLabelPosition=bottom;labelBackgroundColor=default;verticalAlign=top;aspect=fixed;imageAspect=0;image=data:image/png,iVBORw0KGgoAAAANSUhEUgAAAToAAACgCAMAAACrFlD/AAAAsVBMVEX///8eiP8Agf95uP8AgP8Ag/+qzv8Xhv9ETlmXwv91tv9IUVz6/f/o6eqUmZ5JUlxwtP9OV2G7v8Itj//09PW00//g7v/t9f+ytbl6gIdjanPZ291aYmvm8f9urP/FyMrB2//X6P89SFOrr7Nipv/0+f9udHxUn//L4f/DxciYnaKFipA4lP+92f+hzP/f4OKLvP9Fmf9Xof92sP+TwP+Xx//t7e4zP0zQ0tR+hIuLkJbbUj2+AAANH0lEQVR4nO1dCXeiyhIGBEFBEcEtYiLua1yijuP//2GvqrpRNpOZe899mtDfORMEGmg/q2vrakaSBAQEBAQEBAQEBAQEBH42rEd34DvCCo6j3cpd7UalmSDwL9A7uIqm67oM/zRF3vYe3aHvAmurajJBZ381dSsk708QrDTiS9E0XYO/yJ/mBo/u1jdAQwGudGV3DMawNw6OU3ag8eiOPT2KQJSujqJCFryqwJ36/rA+fQ+sVbQNSQnruyB46vohPfouCNCqZui1HnCna0LffQJkyG1lnBjjmdX/vT/fByUNRmuTPjYbjRiFPfBUtNJDevUd0AJ6lCJ93CqKoh+j3lxDBVqzBFIAcAShm7JPKrl2btQy7IXY3QfoM5WZgh3aWWBP3TevZwNFlt1Hde3JAdxwS2C5YC1GCkleYRyeBz6V2cN699R418IRCdSBgK1dDMI0OfTyYDxrx8d175nxCsqMSRWjTrIOGoazyo6N4hlI5eiRHXxewIDUmAnl1IFLMqIAlgUSY1CAuwf274kBCk5m7siVOhA1zKPoLh2H88IrzoIFzHC+ItSBCkRLS4bWDTkUiOMedQ1B3ZdYZQ5YVxED9ktkmIlm1Ey0hJm4hw/w2/r0KXROtpRdV6YspEDn5PWB/XtiFIG6A31i1DVcjaYlQpe4BOdFqjgTsUBMdqcsELtNhmEgJrKd2VhB+M/CiZ3OZhKVkQj//wgwYrkdKKo6JZ36kbNTXYSwdzHGVCfTZiVdUeRYdq6owlmR6ryHo3KdvOmt1zGecMJHEUJ3HytUcFkVJph7F07dZwjAkdPltBkNcEJMb2ZcIRCij1PYWjFxtIiMKv1HdOgboYE5JmUfTaTP9lhMIYpOvsRMp+qcVWnWGlvj1qy0ojBW7z+6Y98AzR1xReVh4KKwIrGdCCP+CCXG1600UTk8ukvfBq3jirGnY3HiqiQ84b9Bs7HH0p3RR0O4JH8NjGg/sk7MDqPdavp6/Ez9zUrQBsvf/6POPTduyYD4YVfF4nYYyuruXrFicXVts8qjT1NEDy+p5YKdcjMgujrK0oLMRF/bTPO3dACpS8YVfY38Fk2TWWm7Jqc1ITmGMm9DDObOsUHqErnNGYUVq2PQslqzLebf9VSyADOisuaWsE1Qoja5C36JulhFXY/E6SqI1hYDXnccuwqrP/VbStQ6KPdqbH8wimzlSWS0TXG0Rm1mAwatVo5dtQfjwufVGNbYJmcTaURddERiSawW9zYaMDpjUz19VZYTbfrQRs2Xk0IWFmf+Q001TVTEIqevYAyizt8I2myjbSxJKmh5Ky5Dv26v31agNJVrYQVivFdXY6mJZvh2sAfXyDflZ41Ut0cZZi1X2g5ntI9rWvc07VuUyYsImLXTZKVExdmRKtm1EmsDig8zB1jzmKulPkWqj2WenOJ+FGEsUqK4iboNmaOlT1gScOg1GXofvE2P2Nxjm0a0rCAnYNRhbCCTiwsUKk00FuqHZE2BFQWV2hpHrBICl5IFuNJMBeU2wjYFiYpVEnb4h6MYVmW/y4rOMnfamC2f+CB5QlakGV91fIXaY8bj9RWZo9HbVOO25MfjSh1I2ohLXQ/X8ci0poKxAgMad0PwKkZcsYI7nLAgt1KHGAfrKa/WGZGcceZYfuU1xEpmRuOV2mjcJUHjsU0/4OciRp0UWVaBo/UaH7zGLOz1GuQ3ZE4qw9Fc5Z6S1AUqryGz9mQFCFimot58tua1zmykqnt+EEvOlFxlAJLUWSsQMOae9a9e2gH95kgjLKotJtrcyZn+YCSpQxdOTuRAArS0/ehFGHLEJawJBkPN1XhNU2dh4ckuWv3fwiP72FW0Wjuahxqv8lfok6JOmmFaZHWTqRnl5uIyNkPfZXVLpszy+NaANHXSFv017YOvtkMrqqeG4jHW5hXdwZwN10zqJMwLy5rqTvc7WY3njK8oKdc2LmuTu7L3LOooL8zDBxQuOSuF2aCloGF0oeWw0CeTOqm3h5AsrKl4HWdcB9ZjFGmTOd/4w5FNHTgbh6muqIq8P96fYA3bTEu5coVD3KMOYI1b46+WKFrj3pdtfio+oU7gcwjq/jEEdf8Yn1L3J1osr5qOZh0yJ2NaxdeVrLm7j8Z9bqzg/VAoFw7FIJf8zbSstPi4oPN3x2qJRWQ3WOtyrVwuFArlcq3Q/297+ZTAtOU+ebAvh+EEFaSssuL6ZqFWQJTpby2Hr+Yd48xMIlzgbxjT3JWrsVK79NT0rAacgdgVDvQX/uQsbyJRjUlicVMRmVNHayS01dhhjVjqBVkBilyNv192dqS93HFXvL7OjoMqEyNv8lzTEvf4eGyhnBVubQJUeuW8xbEtLSF2mO91o0xh7asWL2I6lIG5KFM92C/nbiEtVndFijbflVT9K879x2rncLiW422acKiWtyxAC4XqNmRvs103bBO1c8dyoZa0HI08il0DJyNG3KsN1Iw3TtCbUW+COUaHJOkFW+ioZGf2fjA+cBJ/xwYgBmbp8odRbPZ/ViuU0yn393IOjSwVQOgyvSYGaGQkzYgGa0b6q8jfQmm1EI1MkpDQXJUmMtCr6zX5Y93E+k2Uv2Ot1sBRWKshkX0mi71yDQHjtZYOHsBQlPM2KYY4qnxhMa+vk0DpH4ArPjRnrEz2nUVd6P+mfThsm7tZMUTAl3zxskPpvVbrw+ZQo6HJpW4N8T5CSF0c/RFfx850XUBKzgqIo3f+erH1O+IgdF0SrcbHfiV/bWEDYWGz0FQzXtXZwtLYL/y6Mfp1uUx5XoHRRFLbl7X4mxQhmkiNzVxGE3EUlVTN0jq5/oti2HjAGuQxhk0CMydyKnMSX3VYwsxJtE0Ph2vOhS58WdZtPL6T1xL341o0JRELzYDL3EWwKRQpLzyl/zqmV6T/qi21XJNliQ8zliU+0F7ehyuiyCYkFN1la//1jCoxlhfGoIz+gAzm2jG5YubyGTGKLpRdljz1trXCDbVt3rLr92BtZXpPFsqem/Z+GfoFjMtA3sq1Qr7WX3+OcaM8deXVdLv+xM1tNo7bwvYo3mqURr6DAwEBAQEBAQEBAQEBAQEBAQEBAQEBAQEBAYFnRmXerm+ue+2Xc7qJt6nQ9sS3EUxePrv1ZvPJ2RuGL3/W7rngXUwD0PH4/vDXPDy1qYYf64MLbdt8G8GL/cnNfdvxMk90q7EfqPqr+xddfhZMzM7b5rwYhD/7eXH9FufBgn+qm5w6u5q8/sW5f++u7dsZMgyYD9qx3UVKmp8fC3tJ225G37vGv6RuYWZcQJgb7czj3wgnxzlFditdABtilXO37Vy65zOKTZy6LpOkzRlbAnWb4fAt8+4vvuX7t5vXoZ3Hbj20F3DrbvKhePP2sM1HAJw/tYd173ZmOI/29rGY253o7uLXwDSYghvCR98ZADykjglPnah7MejbTAyU1Be/PgBd+ZKh0yog0VUjHP9Vc2AbA/yl8Cm+DXc26cQSdgdhq4th2AZ7muX4Z7iz7XvhGdMcDJ7GnizsRXQXLOjCZBLkVSpzs3qqVJCfur0EY7mpDIm6CdP9HYdR59S90yL+EzC0jbr0Fg76pdnpet55UsFbn9r2kN8azXDlEhK8MDsbbzMxhrjj+/6bV+mwLtaN3xXP61afhrqLndQ5Q+M6+CK6znHQDBuOk6bOoUYTI20jO2YFNAJzXs7GhB1kZT0JXbfgV3sm3RrUCG58BwdAxaErLxkPeCh+23UJrepiEX6VCHXnCHWTIWKZQZ1NctA2h8l7n+g7d9j5iz2PnrtD3ZvNdOpvE9Wpz57j+0h3lXr6RFiS1A0HthMOuGzqYrouIXW0czZTHl/dxMuHJpE0sWMm/A514Q+wMJEnnwnsC1F3Np1l/WlGq4S6Dvvqnc72b37kDnVRC5ugjs50uZMTwdIZgn1usx/lJWbJ71HHeebbGHXS2wR8d/95fJo6/8abf0HdHanzQD+CFTUc26Nr/kTqbtSlpA5wOlcd42mG7cZh/fo76mzmnER1XT2l685m54xYkpZbxsOKO9TNuQe9ZLouQZ2EyvC39Cz4TSMWqMvQdRszHIRx6pYmftGKw6WObtAxkhFX1WQCwr7tmxHzXm6/CiGk7mSQB+0xSc2grmJkOEEPQsWxh57kDRl1ngdjZW55zAmFITc/0ec4dW2740mViR/6dWfU75PknX1uGDyHfNqJfQFtd7rwFIzpnz32GHxa1Tyzh17MC/RmyYQvRl0VowrvYqQM+ePQ9Q3bMQ0fheZtYJq2Y5sGd+7rtmEMMHSIZ04837b9wbBD0YTvDAe+b/jJGLg7CLNRkwHKsdcxTGg34NZiCDp/4LB74kNN0/h1olbOi2N0kCyIJqgp81E6EIG82MbzjFfEvLqsskCxUg/Bv6D3Bp9hu6nzsJVtveGyepbe6KJ5XTpflsNUHBZeAiTW2Q9xXiwvwyvDJ7j1nDUM4YW94SqDnccn4DPPi8tykZ2HERAQEBAQEBAQEBAQEBD4yfgfLhENtFM5ToYAAAAASUVORK5CYII=;clipPath=inset(6.21% 21.33% 5.56% 18.67%);fontSize=16;" parent="1" vertex="1">
          <mxGeometry x="490" y="-355" width="146.67" height="110" as="geometry" />
        </mxCell>
        <mxCell id="mgwrqRaxkrJux66Nl93q-25" value="도커" style="shape=image;verticalLabelPosition=bottom;labelBackgroundColor=#FFFFFF;verticalAlign=top;aspect=fixed;imageAspect=0;image=data:image/png,iVBORw0KGgoAAAANSUhEUgAAAO4AAADUCAMAAACs0e/bAAABBVBMVEX///8Dm8Y5TVQAi7gkuOsAqtq/2+AivvM3U10An8wsQ0swX286S1EkPkY6RUk1SlHj5eZue4Dx8/M7Q0aLlZmvtbgcy/siPEUujapVZWshvegAj74mqtAjt+EopckAr9d9iIw1ZHMkgJnU7fEcj60peI4rl7cKo8cxYW4slLMzWWU3UVnDx8kvh6I0boA6Pj+Sm56kq67KztBicHVIWmDa3d7p6+yepqlpdntSYmi5v8Ecz/8rk7gfiKozcIcMhrCFnaK309mZx9YHLzkwfJg8OjYico8XfaGDx95svNdVstGvwsXe+Pus2ufM3+F9kJS+5vCVrbKJpq5Gn8Fqr8pTcHloipO0G0WcAAAQWUlEQVR4nO2djV/iOBrHIcKCIWmAggVEKaiogAi0FeWQmd1xZm5vZ19m7/b+/z/l8tKWviLO0sp4+fGZF2ma5tskT568mslISUlJSUlJSUlJSUlJSUlJSUlJSUlJSUlJSUlJSUlFqvbQDMisvnaaEpQOSUDam8YloOvVAOG3jVv8x5FHDeWt4x6pLaWlnBQ7V+3u6f8BrtICLXAyOOm2xxL3TUniStw3I4krcd+M/g9xb7lXNewM3oBXVd6ouwr1mU+OxKdFP9877gcNbxIB4MKr0gt6RPpdkgn/NmGAFK8Q8P2oAKB6hcDWuDUNzhJN+rcIo/G5VwOlceqqf3qtDH2Xx1vnbl0DRKsnm/iXC6OLzjn9NDo39E+jc3XbaZ+0O502/ef05LSlFE8aPMB5+/zy/LK3Le6dBoYIaZOEk/9SUdzL4iVoq+3bjtq5Zbi965vGTe/6oj8+HbeU4YnaQZeIBhr0r863xr0n6mEeIFxLOP0vFMMdXA7bSlvtKPTDcPs3jcbNde/0QuCiDmgDilvqd/vb4loaWhVyOYC0edIEL9LWuIMX4dagks9RDZE2ShrhJUoIF6BugeHmqSkvJ83wAiWDa2FlyXEL2VvykDjE9koGdwpVXpYp75OCp4lTbK1kcHUICjmbd4Dg/vidyeA2SdfBzWVVuD+tbzK4gDdDdvaWEEwcY1utcW8prOq4GQzXcTOUDuLt7lX/6npLXIieXFyavXiROMeWYrjdy6v2oF3sDOiH4jb6jevrRv/mtNe+YE4k/bJ9RQON++Ntc1fz4hYAqSTOEaN6zS9CfWbmINufzpXabq11dKIMfZd7iAQiiDS72If79HqluYahTwAgn4C/Q4jC1/33w8iM8xXm3FJhroY1qk+n0/rIShUXBtMfwt38c+DH6HJqorEH91AhehNj+0Vj3Jyn5mjVIOp41VB7bCKzZX+Ouuql9/KlUhQXnQlPtee7vRiNWyFFD25eBYQgReXlRVUQgZqRkifNcGmbIizP+cX5udo76Z6UWsXWsFU8GjLc3nnvptdrXJzTLmCb4hZbg9aABhq3V22KSw0WtW2XzLYV43AnUMl5cZFaXD1mD/P5/GH28VNRRQQbqRRqhjvkndfu+fh8xXEHJ8OW0rptqUe3DPfi5qLXo3+dUy6Gq7RQC50UO102Eklxr/oD3kVm7VYM7gwrWQ8uemKkax0+IUQ+pDHU4eBSn+Hayd01rhqN6xln9uEqcbhVv63KhzUEMI2Ru3RwM/cEbKRdKul4linhjrDyWIinpd3gdJrilHAzJkEbMreEtHT8yrRwR5rTS4igHStQT4U2NdyMThRuraLyVoHNdGhTw72rEPBxGUW7HCJopkSbEq6la9SNWhbCtNmxCvB9WrQcF10O+Rh5tzHmuMUTRGE/tj4efVzj9lxcZ8KzZLsZpX6RRsA6yLeRuHf1JoVVV7kw7WOJOVQpjl0xXDYH0m/3L/uXl5cUt3XKPkfiQ3FdsRBK8R/0axGk1W5R3Da9tX0uJlJOgrjlUc3EkCjqKl+wSzL3HbnzOKA9LKglPTHo6542Cbhp0I+txlgZ9/vX7qc/UHruRXq5h4bisq0xGtuXWSSNxpCYbtS6YWoaZKzFm7xrpbIfxdyhwroGGNSS7gxVNW/3lKDABOezPz9zmayjZnGrSvcxXyisW6CVHQJruDlJYQa0rAEwZComrEFp9bTM5woFn3ehEIN26+uLWUp9XDaiz59NE5K4Qo7yo4LTnSRinTH+5FyacmxxkYBUaTMj+Aq4rk+hwJSnTBavgOs2tANE0pgx8TyD4h6+ELfwfJDtaJehCZNkGt2q4cX15+7zME8bghSWy+ciyHsyNzAKP0+m33enmc7Ql1t38zbsanNiC/mBOo59J4VHVXmGN0+bo5jM1T8kU5N1SHBNvFjXMuc57KOiDPKx6S0U8k8KAggsC1FhCvmuAoDSzUZetWk/Kco4a2eub65zASABSVTlGgYAUPd0VhXtrsAt5JYrlSYXqU/5QjjB9Bvqw98iwKQWH3P+IPSn7FhcRerwKZuLjCL/GfAnDB4PaZvrMcvWHLA1eMTcee1dmJAnGRBMjMkUoqfD7PLxaTXgkyAivcXV8jC3djxy+cPlUxeoTgA+d9K9ybq+Se5wuQKeq0hBpafHrNd3yeWXTyW2zs6+vUgTMLLKZWu2mFZYx0GkCU52CFwd6VDz7GSDmGa0Ilx0nxT6pQKo51cqDYaIO/EoKBZkSEMMiigcgYhCRUNPHN4gDI1oQhh6koQ1o74Tj/KuXjOM+0pA1GUuvYIGtOAGk2Lr3jAq86RmESqkeCx0mKiyxz6VkJbqZJ+jOUQHQtkkdeDT8aeUBs5Doi3R5+Rx/bQH7xSS2vibX1WMVscJ8x4HaI+Lr1SUM2zZTzFh3IMg7Qq93uqiOVTe2clIBDaYtQfHnxWS1sB5WJaGPiWYvUFYWnFROtOZMXpwS/Mz2fvPn35+KWwoa6mGSHvNbQhT6Njmjdn7ry+/fD3742W0EbDHtNv3qou2qxCVjp/n/VLRHr58+fXvwR5Q/yKt+b046cQxVhuK888/aoD88v5sa9iockyN8muaKaGytkX2/vwL7U1AvC1uJCzzpsjrnyRSWWdvLO/pGetBVbbEjYTltIn04F8mb/bG8v762735+5d/fTssL8lkH/bC1ahxjuel3ZlH+s8/z778sQ1tDOz+0GYygKB1ugKobBTi9tNhlnXhnmWNrrOctoTI8PVLMteMFmeWJKEs76Bms4+fn8YDpChQUR63KcQbYA8OBgi+vpVyVINiRAUUB1RF4CzlZbOR5vvrrWA3sB6/AwgazycjNTVJYDEyW3JrGr9//fGMOhd/pxQfcJOMtL3a8HcHCfj69euf77n+/Pr1xx9+O6OkZ1ynf4OVqqTs3fZVSyMPP/h0ttam7H2O9fgzLcjgtbrzsRppxPzxh2jiuPb2OVQKe7BSAK7sjZFaa6EREOT9gRVppm9BtbOWpLTE8aWivPBriFdk809ucaYt1TagHPbdgNba+z3MWq4RJvh9NO9v/9mW0QNbUhAk+5m1XBYk8K9wgeZavhR2hWg53qvmJ6RqE8YW6JfwUliFwlb2aTdypCZabAZvy3t8/LnEYO/3rvWJkGVCgn+PBP73dhn7qciWN1a+B1imOaYlOgr4WXt1TFlZxkKY+PLGHepOpyUaVn45C/H+9BwrWwepmfV9bXtiVK7QHMbD9+EsjizQtC1+93k1tNetfi+l2KtyjWCaeJP2iTZmMCf9VCoqIl9r+3dyz7ZaGGLfpVl572X+7Sd7GODggIKuSkO2+oAtfDCm32O+elRdVAC2u79k8Fflv//9nWtVKpWKQyTWLDNSs/K9ozqy6jpfaG4vGLGXYiP+P4w12NSns/0YcduZqtZiXqs0h0QsLicAmEZFn9dH1hsDDarK9NqJkJKSknr7mjVNfUcxVe736/y4CN1phGB9JzF9IETbowO3IjXCbLntLmKqQxrTa69GeE4MF+xkA5PE3T9J3G+UxN0/SdwtFewMboFbLVvldHuQd3XdhBhjUJny0eAIXGt+D9gRYaZej+nAs3Edvi8G6As3+X7c8n0z4GLNdHoP1jTiuSeYuEWtYhi1nb0RPqbKdykRdvLXLAJ31NTWQXDUdEC1Bu0QNAgmDpUPd4api6V7blq426PYnq1IopEhdhXhXR0vWNMI8IhoFZouH+6dEQwSmsarQ+gNAaC99s+LO9LYvestFuUm9kULw0dklJvuk7WdwN6Z/nSyxw7n0Is78qeKBwnszatooRDzIO6MhyHu6qK6FooWB5YeeYPs5Agny91rx+qu+wPw4NZtFMJDOPsFfSs3m9AJwXa08UjsvRRr3JGIxt1RMllH694E/AvLam4QCHdy+NqdeH0Em5PFzBrNH7wZKYIsNLukGdORNVvUgI3m2fcjaAl+mFrlO2uks8pmH6Pt4trRuKdrz+1oob6w7sqzyVA82Xt4Uc15crM2me5kgNO0n+FObFhN6Me17GSuD2OpC4u0XmM+EbTAjaQ6NQx7RYKD69A6CxXsko0nbm7aG02haxZEqaK2bWdThyKhfsMz13y44oX4jjyvGtD7nXghMWdK2bhBWhEt8S+u0qG3tN8JWrK7KSYRY3DHklNXOW6d2+jgThCeMOeIC4OnPMaV4LjGKEg75REEV4DqxFNqKiQqyN8Rz1wSOg5qite4PBfCDQRHFAcL25kbU7fqooQGaDP8i+Cp8SNRKUQDa+FN0X6TeDnF4RgN4uDyh0bkXBW63/N3BuPsZn1tCjyLILkbAwMO1tRnzGrQfaE7EmeJ2nwn3izD5Q0wjqg+4gJ7Uyz/449uWeN6l3zyghpoSHWb1k4Pj3anp+jzpGhRdk/YJztdkVtNy+yNsON4eD4HMyrwjCBthhda3RdQmD93HSw3K7Fl5pvEimH0ttmJ41Ux7ujNl/zK3OGOncp1cH20YRbbtyPQiYi7sbv9lRCsekSfdVd3cLm5iKxALN9ZG8kLfvxv2bVx/YuXBYunilh292Ptmora/UKgzeK4kWv23B4Rr2ORJ0jpXtz4dNmW2V8qg7gjx6Nav7WFz2vfiTiuHnXFfVg8ri934w+Mr3sbF0cBXNsk+7p4LAU7PruK40Zuf2B2lwwzdg2NNBhNu1aXN1cyuzBDX+PO73HfYg37TLJQArjCtYm6whpe/iL4f/SIEMIgT9lW/djqzeSYKh9vlXhaQCOqdieBG7IYbnK45WS1uhb3RhZug8wbyNihBrch8vEabvvmmuRAMhLAzXCXKeJIUeHRsMImDGTElBZvmfkBRJPY1ptp7WZ4eevOAxyTDIL3J4HLnZtw9gqnSpgfYTJDlmi+9ra5zxxtAjKuqeKxeIoAv4ewzR38ykPoAUng2p3OgNNcNT0dE9GLCDpz4kbbu20Sp+hHiOM+mEFeO1oYNsm2ksC1+27E7xM1RQ9XFK8qDraIGTbiI5wC8ZPo3cVMB4v+bjWYv1XiZjqIXK6fCC5vEYBvvtkSiXB3/9tjCsTT+NoDZu6ok2GXyPVbq9adBb12974azN8Fduu0bZKrC+9i0URwna48NMVYeXVW0YJDRvd2iTNGVZGqB5HS9XEIYpSAjdiKIFaN7Rcse3EzTv7qzk0VZ4yPjy7TB2MIPR3iZHAzukg7YbsZjQdoj8z5BhFM+zvMgpjQHjP0Ft6RM2KIITBN9nd4JNLO3/Vt7hloPDR/sMdGJITrdDNZeSXOKKS/qlbdkWhPEH+FW6zHg50QoYFXh9ctFOtBQOdm7sgli0s91sDodniOoBIMAoNu1CwwieAOb3FckWmC19PjDExf+GxIYrgZq+l9LMEP4c7rgnjGnwnU9FA7WdU16Atip5yZJMeTqT4EpgMtw3MTwcBjDllTl9QRVjMd2L/+RyOV6IHOhQGdVdtm9J6Rcs3ETpCH9fF/9Mv1OCbF8w9qWrWh5vzaIX+BMTH8kNzuOWs0nc+nCyt+nLM6W9Ag9dGGEYbyaDqZzBczXySjheeORfiIPLYwejIdBQcIq/X597uJQUpKSkpKSkpKSkpKSkpKSkpKSkpKSkpKSkpKSkpKytb/AA5LpLeJetrlAAAAAElFTkSuQmCC;fontColor=#000000;fontSize=16;" parent="1" vertex="1">
          <mxGeometry x="720" y="-337.25" width="83.63" height="74.5" as="geometry" />
        </mxCell>
        <mxCell id="upPlrhv5ZUz3ryXjEpxC-9" value="S3" style="sketch=0;points=[[0,0,0],[0.25,0,0],[0.5,0,0],[0.75,0,0],[1,0,0],[0,1,0],[0.25,1,0],[0.5,1,0],[0.75,1,0],[1,1,0],[0,0.25,0],[0,0.5,0],[0,0.75,0],[1,0.25,0],[1,0.5,0],[1,0.75,0]];outlineConnect=0;fontColor=#232F3E;gradientColor=#60A337;gradientDirection=north;fillColor=#277116;strokeColor=#ffffff;dashed=0;verticalLabelPosition=bottom;verticalAlign=top;align=center;html=1;fontSize=16;fontStyle=0;aspect=fixed;shape=mxgraph.aws4.resourceIcon;resIcon=mxgraph.aws4.s3;labelBackgroundColor=#FFFFFF;" vertex="1" parent="1">
          <mxGeometry x="528.36" y="-660" width="80" height="80" as="geometry" />
        </mxCell>
        <mxCell id="upPlrhv5ZUz3ryXjEpxC-12" value="" style="group" vertex="1" connectable="0" parent="1">
          <mxGeometry x="870" y="-520" width="390" height="370" as="geometry" />
        </mxCell>
        <mxCell id="upPlrhv5ZUz3ryXjEpxC-3" value="" style="rounded=0;whiteSpace=wrap;html=1;" vertex="1" parent="upPlrhv5ZUz3ryXjEpxC-12">
          <mxGeometry width="390" height="370" as="geometry" />
        </mxCell>
        <mxCell id="upPlrhv5ZUz3ryXjEpxC-11" value="" style="group" vertex="1" connectable="0" parent="upPlrhv5ZUz3ryXjEpxC-12">
          <mxGeometry x="90" y="60" width="210" height="240" as="geometry" />
        </mxCell>
        <mxCell id="upPlrhv5ZUz3ryXjEpxC-4" value="&lt;font style=&quot;font-size: 16px;&quot;&gt;EC2-Instance&lt;/font&gt;" style="sketch=0;points=[[0,0,0],[0.25,0,0],[0.5,0,0],[0.75,0,0],[1,0,0],[0,1,0],[0.25,1,0],[0.5,1,0],[0.75,1,0],[1,1,0],[0,0.25,0],[0,0.5,0],[0,0.75,0],[1,0.25,0],[1,0.5,0],[1,0.75,0]];outlineConnect=0;fontColor=#232F3E;gradientColor=#F78E04;gradientDirection=north;fillColor=#D05C17;strokeColor=#ffffff;dashed=0;verticalLabelPosition=bottom;verticalAlign=top;align=center;html=1;fontSize=16;fontStyle=0;aspect=fixed;shape=mxgraph.aws4.resourceIcon;resIcon=mxgraph.aws4.ec2;labelBackgroundColor=#ffffff;labelBorderColor=default;" vertex="1" parent="upPlrhv5ZUz3ryXjEpxC-11">
          <mxGeometry x="130" width="80" height="80" as="geometry" />
        </mxCell>
        <mxCell id="upPlrhv5ZUz3ryXjEpxC-6" value="&lt;font style=&quot;font-size: 13px;&quot;&gt;Elastic Container &lt;br style=&quot;font-size: 13px;&quot;&gt;Registry&lt;/font&gt;" style="sketch=0;points=[[0,0,0],[0.25,0,0],[0.5,0,0],[0.75,0,0],[1,0,0],[0,1,0],[0.25,1,0],[0.5,1,0],[0.75,1,0],[1,1,0],[0,0.25,0],[0,0.5,0],[0,0.75,0],[1,0.25,0],[1,0.5,0],[1,0.75,0]];outlineConnect=0;fontColor=#000000;gradientColor=#F78E04;gradientDirection=north;fillColor=#D05C17;strokeColor=#ffffff;dashed=0;verticalLabelPosition=bottom;verticalAlign=top;align=center;html=1;fontSize=13;fontStyle=0;aspect=fixed;shape=mxgraph.aws4.resourceIcon;resIcon=mxgraph.aws4.ecr;labelBackgroundColor=#FFFFFF;" vertex="1" parent="upPlrhv5ZUz3ryXjEpxC-11">
          <mxGeometry width="80" height="80" as="geometry" />
        </mxCell>
        <mxCell id="upPlrhv5ZUz3ryXjEpxC-7" value="&lt;font style=&quot;font-size: 16px;&quot;&gt;Amazon RDS&lt;/font&gt;" style="sketch=0;points=[[0,0,0],[0.25,0,0],[0.5,0,0],[0.75,0,0],[1,0,0],[0,1,0],[0.25,1,0],[0.5,1,0],[0.75,1,0],[1,1,0],[0,0.25,0],[0,0.5,0],[0,0.75,0],[1,0.25,0],[1,0.5,0],[1,0.75,0]];outlineConnect=0;fontColor=#232F3E;gradientColor=#4D72F3;gradientDirection=north;fillColor=#3334B9;strokeColor=#ffffff;dashed=0;verticalLabelPosition=bottom;verticalAlign=top;align=center;html=1;fontSize=16;fontStyle=0;aspect=fixed;shape=mxgraph.aws4.resourceIcon;resIcon=mxgraph.aws4.rds;labelBorderColor=none;labelBackgroundColor=#ffffff;" vertex="1" parent="upPlrhv5ZUz3ryXjEpxC-11">
          <mxGeometry x="130" y="160" width="80" height="80" as="geometry" />
        </mxCell>
        <mxCell id="upPlrhv5ZUz3ryXjEpxC-17" style="edgeStyle=orthogonalEdgeStyle;rounded=0;orthogonalLoop=1;jettySize=auto;html=1;exitX=1;exitY=0.5;exitDx=0;exitDy=0;" edge="1" parent="1">
          <mxGeometry relative="1" as="geometry">
            <mxPoint x="794" y="-297" as="sourcePoint" />
            <mxPoint x="1000" y="-380" as="targetPoint" />
          </mxGeometry>
        </mxCell>
        <mxCell id="upPlrhv5ZUz3ryXjEpxC-45" style="edgeStyle=orthogonalEdgeStyle;rounded=0;orthogonalLoop=1;jettySize=auto;html=1;fontSize=13;" edge="1" parent="1" source="upPlrhv5ZUz3ryXjEpxC-20" target="upPlrhv5ZUz3ryXjEpxC-41">
          <mxGeometry relative="1" as="geometry">
            <Array as="points">
              <mxPoint x="320" y="309" />
              <mxPoint x="320" y="236" />
            </Array>
          </mxGeometry>
        </mxCell>
        <mxCell id="upPlrhv5ZUz3ryXjEpxC-20" value="Back-end" style="shape=image;verticalLabelPosition=bottom;labelBackgroundColor=#FFFFFF;verticalAlign=top;aspect=fixed;imageAspect=0;image=data:image/png,iVBORw0KGgoAAAANSUhEUgAAATYAAACjCAMAAAA3vsLfAAAAdVBMVEX///9tsz9rsjxpsTlkrzBosTf+//2Fv2Bkry/J4rra6tD6/Pjq8+R9u1SSxXW+3KygzYWp0ZGLwmhxtUZ8ulby+O7w9+u62qeOw23m8t/E3rR3uE3V6MrQ5sOYyHrg7tex1Zykzoqw1ZpfrSWbyX9crB2Iv2i77q+wAAATeElEQVR4nO1d6ZKjvA4NXoBAVgjZSEKWvt/7P+JlseVNhsx0kq6e4vyYmnSIsQ+yLMmymExGjBgxYsSIESNGjBgxYsSIESNGjBgxYsRbMM3mX8lPd+K3IVzElHC2/Ol+/DLs4qAGYdVPd+RXISxJQ1vAbz/dk1+F9NGyFtDFT/fkVyEkQtq+fronvwtfvKUtPv90R34XtjknhLCv8Kc78suwveR5uUt/uhu/D+l2FLURI0aMeDGKKvkDVNt39CHdzop3tOtHOKthLsTh810Iz5eA8j8ByY5PNl/tLps8z+f79fFgdLCqjYcLOOHFdDUPaqs/z+4n26AId5s8WooVc7tclPn82l2T3ud5Jo3dtL4sm8ofzY6rqMzz6LLzOPphco/qO9b3jK5wyXYVBJvjcyM7zznt3JTnQVn+hL2UHjec0aZvpH4sZH5TQzjR2lTl/NR+KO45462r1Fw33xmPJFwwMGqLW9C2x/bNzdN5/Q2Nr9299u2HdfshWdRty/tGiBfR9Ky7Y3NLmnVBu1lrP4s2Bob2xf6Us6CL10SHgaZPG7PpeijRtCO72ND2L0Hz4VxyYrRcTrVWlqxzoZb1hbm8kDUicRfftGPuokitp5WuOTce8WI20DPK181TWXQ/48ORzyJif0Nae6+8v/klp+5vWNRKXNUNMnjU4nbl9nMjbKUEbt+1QrOaQLiQX2oxzLXAURh1l/HVpNjbQ+Jz4wmHV7dnLCsmhSCb34dYSyNuN/A8aN4nb0dcimnQMDIVtLHpZI09N55J3sJ51wyJTrHWyr6JgIj/N4GjVFxG90XmDonOtUUsXaF3nKdbSdtqiDa0z0+DRn7XpiLAGiE6gWzX0Cbuy6ZLvAfAm6QtKDdaK83IUNrI/gsTBK7F5FDWmjtuqWq8F9U3ZK1BSwEOoScahZaXebMyyO7dNNroRfy50d3GyiQHCrQF2pekUT8obXAZMWWdwbpw1Vhr7ypvyy/y1gO0hXtX+/wRSOCzQ+QDIcG12haz6ngphUIxpC0QGoluvtbXVRZoE1s8EkWbPtbrxEtbewmjeR5wTWnSSHQsUZJCeJCtd7v1Xqw0kowh2s7fmqLtHXxx/HvXO5LDIlZMs/q51l0tdNq67n9V3QI7W+YwKkJnGG3tWNtlxUsb4ZtdVRuyp3WgxIJ3ejjdwJ8ouYrObZelPu0GaEs3qNL+I8SeVWEhREs3JSanPSFZ21WdNlpqK3J6gQE0q6VDGy+X8kH4aCNU2sb1ogqtCeE9wo15pC0TxZfWoQHadt8WttYuQJ9I1I2CWW5YISa1RhuPzIl+VwObObTFa2Vk+2ijJ601qWLlLIXLeGYuZ1e1TvfTNgu+L2y15YVG8qUgM48wKtpIbqtHWAo7DabTFuvC66EtNrabi1wuEWVD0wlYnNtGwE09rl7aVt9cRmV3+mjzbcYp2h6Oz5iWRGtap+1hTHmcNmIZRTClaKGPmbvPswRB7KPtu8aHRIwlE4SZ0Lxsj661QBvWRfiykVWNNm46izhtzPLEZ/DrmUYNtpSBOd1LW/ZN40OCcIyYG8wGukYmKjCDLSmwVDULima3WXKN08Yt/zOM5Bf1nWZyzBSLiwCnPbRNh4WNcMaeEEmORQxOms7n0c4mR9JGIuS3kzVXLSva+NS8CvcSSjswc5G2/0H1Cr/tbti5Sh0r0gEN1tPp6on4CKb3Q12YKadaUEunrdX6DqQ92SzTQBvJLUJw2jJH1UsyDhBNwZ/0pJLf+mm7DooR3bRsVGSYX0zvW7+jZmhT0obvqM+0NQFoc9QR7so7tK012uT/bQXYoRj0SbdPGB9Chs7x4JXshNzibEdnKFNbwUAbGnvdSi1Dddpshv+CNil5aIcnE0GKn7Zh44NCQko5LG4RFulN5vYEJ2yTmLQ97ABii0LekumT1FYFf0Eb6Dk8UpgP0PaE8cEhuLEYXnLxjMYm1m0RR8X0AGlDzWGMNtcs/o604bQNSZvH+CBcTSzFBNBGOHcCseKbEo+EzHYb6yekM1mBNnS2zHJJlUbb3Nma+YZuw12bAd029QTqNvfdQsa8XNpoeT+uS1xOmW/bIk3WEWFaII20hhWEKVHdDFGnSKPNsSz+gjYwMdCw96HfAAlRbUVY6yYnYgV0aKOtvV8scMqpPz4eHpZZoGTOClNiv1hqlsBLaQPLZo/d9thPGxr5IFw8eDEimzaInN1R3jg6fsBsOZfEtaFNFabEFhMp302w56W0gRjn2AZ51jtJC8yiIBBuCXFpo9DWDrVIPGu6wlLO1GaDTjlXyCyF0EyjuV9KWyrjIRxZww4PKQIobTdMPcVqbematmnT7HmUN9wI0SE9m8bTBNoc23+iWUeNKL6UNpBj7Lb73qA4kGqwppaWUMRlbWnTZuEVm6fDxyqE1dQsA9Oe4JaKiTUa6LW09URejrG/SxPc+Ii1HaglrtuMoMEFEVhDX6TXy8qZtWIAhrSZ925wAAemnfevpQ2ils5TPvVHdzFfSdfncrFxaCOl4k3byNBaUUZIsWGUsy/LBRCzwNBtzWfDGqhgYGQ+eTlt2oImckcE9M1whDYs8qFv28H8c+02QlTkJsH0IwFeu85xctOJk7qNby3LkUegWAsts6HbvnkxbUrcApZBfw+GWYXQhhkfmmK7gyyiXoISbMwMUZEQkZBBeLA4C+aKZaANzDS4Kc92yeFQnVdqvy/gnW31Ytq0ravmttdTVSXXPTGkwKUNi3xom08aGQhttUUM5kKBxeu4VGf/qc1IlkeX9X29gKyi1uRQdpsYbeODUd0Rk3biq2kz9LLI6pNukByG4/JgxocK3iw1vYfRVosP6PkjIm5kE7oNETNPoRs+hCnXOUK/fqeX01b4soX4XRp1V6sJLPKhHI1Ez8FAadPiEHIn1ID8UXrzBoU7A1GlziRoSiKBCLj0BF9G22S2QXmLl2BYWiZ4uEB+AOZ9GunLI06btuhiqUJqcTlvUOJIbAaO6h6eAndV5rlSt2I/hmwsOhRtF522vZc2WJ62e7dvpHbkIHxuxUewnI9umW9grhYe2pQ7scWml1IL6a5kNh8E6NAjIFVkjYKwvRYYED4D4vRGWi6OVFnMiW2IVDqSKz7Tq7kG1B0rz1o81gxLmOIkByrpsWjw0QapO3iEOFYmR3GMqJZ7Vas4spIWsRE4Sq+5ivMRzudHXWIOpPmOOsHd2qJ5NI3zsm00iZsPNHDCxV3mIzG3cw8XyuVmR5POc9sqg5dsTHWARj5Adi2PyUdbmzfaAt1kMEMyh92ibLYNa9A826khWfG27S4K5GVfZ0uJnUoWsxKLFBxJ/c1G7nnkzWXI3sQsq9slthQeruKWPIi6zCO5O2vZH+isApVhpx95aQPntEAXwYc1vnSWnGucKiP+64Ypt8l0uVyeKiQgkJ7OTta96ML5nIBkFvVleHZndT5rk+Ag/19UTc8SMQPA+LJiOWjkA5TRyRJFL21BLIYQopsMSlf2oT+6+04sySPeI1sJdxnhIGYoB992gai6TaqfNshZ23kW8ic6/2O0HRt9SONsaorvIQONY0UA8W0XqWlD2wzz0wZzH0/GJGjA1sKP0SbtlDjeL6tt29PicMweyq0xM5Y8Y5ThOkfx+WkDdXjAzW08U8DET9GWqmHSejkIyhr1f3Q/yFhUQjzhFChwprCftoAI7V54PAE76QfBj0mbGfFqzxcZfY/N/Bw00qO58faK0EebtM1Sz359T9q9xI/Rdo77cgyI3R9PqgxYE45n3keb0Ie+lGm6GDzAflanYD6M6cZxXtSYc9s69GQkPEPbxaFNNJ5mvj36wUVBqkU3BfXtSKd7NLmAMLp2cguweEUvbSp64pz5kG4pGgRpfzu8ll66+C+eZ/5mhNU14nFzSEIyRuplYX5HVLJHDUFA1slvgAhM6kzvh5ykvtTCePiMbrFvHJvsw8eVAelhetvPc9IFKcvoa4e5J1o+vgnIxnSWhEDu0q8d2uRhg9QTYnyGtkl6vl7PP1rEIyxmh/YI+2zrnR2+HCOZRnxwv6K7tG567Tjsytbz6FYS/DOFYDx5gBBXLJBZzMrLInetZDBaKtSCdry63wws9N8AjGJsqSUUi1jDYuHJ9/qX6tD5TgpJDfYHB7Aglc/VeuKCf6gymGeWggXiKjcPCBG/8Jptmx/V9K+FJzdchdifPZILmYhbj7DZgcrfDc8sBOXmmiAeVuR+gEdd/mOlIj0eJOjv8LlDWOp6j3hKRz88XhbXnzJnX4ihqGLyjLipg2kD0bY0iillyPnD16O6X+7v82094qFiJc9Ut1Ahb3RroqZVPIVuI4zmbxsOYMc45ez6tvYrPCwOI0P3US1Zgk3eGe5ZQTqDaOvxdnFL2s1pgp9weAlwAVF7DgefkwmsqZ1X3GiDfSt5bOr9NpwY1BtXIlxCNBcy6T/OxzcQW6lwewY2wuQhPfy8ySuRyWTP990CN0I0ZyjJe+apxppn2VV78p+jTabWvFGLeowQTS8cvBW2CFuonGZ8i1Q7C/NP0ebxvvUk7/SGx9p5cFU+k2cya2L7b9HmcaH4f1qo5xS5xHG+0JbELR4r1s8u/mO0VfhZZLbS3e9zRowMKxZc9KwJn6HCtY0+k7ZwdjqfT36XIW2SWE6znhBA28IZi1x/hDaPERLEZnbSYZeJBCvGg8XR2JxIkbpyDaieF6bTlnzxR1zjkWO1LSanddl+HT/44ogylx4XXFxSrs20lyKRkp8nJ09e0ivgi1vE9lsHwsNpejzWMmCPAU99teajoi1dQIIF4Y8ve2Tn8qG232jM3a3p9B4rrVE3kSniwstDbRc3rA6WR/xr+OKRT24jzZBU227IRkKgpI3ejPKatZI0HkO4eFgJqHFpSWRlx+XpYyW5v9hjebxtuzr0uQJ8oERni6k3GcA8iCtpc0gmOm9b5DA0MeN1R+SGTKqD/zmdeN+bOrwVKsT55R4UF291CyvPaOZ1NzQVmM7RM0jaIU1PZ7nY5HFp6z8N/C34PfY2YdqLdBl4KzrY54EN2tqqP+qs01VepA6kUKbVBdLa2kISedsGdFy8/8U5gf54YyqOxwjpOhf59nyL48ZTl6Hlwsqh1Gnj+Xo6vcN8JFSwApJE2H53Xt4oVAmDqaaOxga343m3hxnbJdgW2UMl5zOGLSgvBFpjVYDy+e7gMJcm67KHNPfsskYb6zR4CnUM7WKdRJxW2EJJRPnGrwTOYQvH7iTdE5HnH1ZTMECmx+S9+7Pb3hrihAXZ+jRLBXdhcTjfNrSPNMQZULSB6KRSdMT2s6qXJkOzslQz/EYmO9EMQtDArFw4PmPuthgqDFUrkmCTXVbr9dclm1PWz1lgVAPuALRpYamZ5CluRQfO6ihjSx5IF9pNvgBMX6XhLJB8Gh+kzZcHaVBHRS3f4UsD7oTygTY9tVLu/LeZntAHViBXtLIklZ++Pm5l9yRNH6TtmaJ3fwCk5gzQphd/kluEbTrEVnKim8ln/QqwzI2cS3lWVUrgJ2l7WYnFrsduMRIowRZof5RLeBtgkqJknN6cGfIlVRvTPQupYKRy+yhtnhTovwJWygJo08sZSl3Vnmw4olnPkrb/mg/y7LhRTEsKpNyl+ChtLyof23bYqXU10XxSfQqG+jsed9bwO8hTdu2hCiimpdMmF2D5sD5L22uKFbvjls3rZ2QlgLbmj3Ky4bS1HljeR5uc3J+lDS8d8xfAy2MDbfq3+CTFaOsmqdyUMmhLYvN3H6btiVqoTwGvkwi6TR8NLAnNygsnOnSHCJbX1hCU9jHXl5ydRfeHafMmQ/4ZPMXOlAGiKb6lztThgTQAJVbazRxp2uohEVVfUtiKn6bt2y+Z6CjA/UBl7mo2V6Ybs4VQrkaC9F0SZZRi1INSMlwIWcefpu0lVcV956uUc6VKxSfghLYjNnyGDqG8orNlt9LXKt2KvaA0P07bC4yQrpw+AuXKM7l5CqkUouiErPylnTWSbmq3IqizO1rBB9kImHuwY/6x9PTvGyHebVA9cNRV1kpKqRNErk4q784XQpigWI0UwCnIp0xkkvNc1a0DahsFWHwkD/G77+fAS2M2MMOU+/U6s8r1TDSW+Pw4285OEKtV0Tv1DoNFMtse1DtbmFMWmGyuX1FZDsX1X4FvGiHEjXxImEFxqhX0VZmFIZyJJYyWQaxq/sImDKjDgMZ5ySGUS5GMsWZLnJD4fXt+Cid/fPwJuCVeADPvKq0dRj/oFbTUFXpBOu0VLVoEi6hScbYd5VaDfgeWvad5B1jr2V2Ds/d2IJkQzXY9YYWQzDc23hA9Qom2JzgzA4KEfES9HZEXFD4Fwm49ORvyrGk8JWatH2LM68rZCyN2Fu7VSeThpbGhaxI7XJH1Najw2ldDpPG8fwO8K+JCo0mlFbInzHo70yRdGUeJKZs7ObiJkQFFOP8yw3tppg2AvjGH10LzitPu5atPotbw5dCRgzSKOWWNKZ9eA844pfU/c4Tqwy1vv66/ZwTfbjxnlIlLeHBzX1W0pu23zdebJzILXobquoj+ANn6idye5jjHsrssTJaXy+J29GSNh8lxvbgsVruT953O29NuVV+yPuKsFOfrpb7D9fyJYxAjRowYMWLEiBEjRowYMWLEiBEjRowYMWLEiBEjRowYMWLEiBEjRowYMeJF+D/HixDQvcn5AAAAAABJRU5ErkJggg==;fontColor=#1B1D1C;fontSize=13;" vertex="1" parent="1">
          <mxGeometry x="178.57" y="280" width="110" height="57.84" as="geometry" />
        </mxCell>
        <mxCell id="upPlrhv5ZUz3ryXjEpxC-44" style="edgeStyle=orthogonalEdgeStyle;rounded=0;orthogonalLoop=1;jettySize=auto;html=1;fontSize=13;" edge="1" parent="1" source="upPlrhv5ZUz3ryXjEpxC-22" target="upPlrhv5ZUz3ryXjEpxC-41">
          <mxGeometry relative="1" as="geometry">
            <Array as="points">
              <mxPoint x="320" y="160" />
              <mxPoint x="320" y="236" />
            </Array>
          </mxGeometry>
        </mxCell>
        <mxCell id="upPlrhv5ZUz3ryXjEpxC-22" value="Front-end" style="shape=image;verticalLabelPosition=bottom;labelBackgroundColor=#FFFFFF;verticalAlign=top;aspect=fixed;imageAspect=0;image=data:image/png,iVBORw0KGgoAAAANSUhEUgAAAOEAAADhCAMAAAAJbSJIAAAAxlBMVEX///9BuIM1SV48t4Fow5gwRVtgbXxBu4Q1RF01Rl01R100QlxBvIQ2tX41tX0wtHv0+/im28Lq9/FAqn9BsYGw38k2TWDU7uLL6ts+lnih2b86cGs3VWM4XGUnPlU6dW1QvYw2UGFddX6T1LZ3yqQ/pX1Wv5CH0K44Zmi+5dPe8uk7gHE9kHY8inQ+nHp+jpa4xsdMZHGTpKnh6ehrg4oXNE7Q3NururxDXmzr8PAZQlQQM0zd5eWbrK88hHI5aml2lZc0N1r5XN90AAAJP0lEQVR4nO2daXvaOhSEMU6ujcEsJglZachSErJ2Sbqlae///1M3t0QpAtmesSVb5vH7uWArgjOHmSO30aipqampqampqampqakBmG4QnPwDcpfhTu7QNz9hbnnaGHVdGG/P38R4uKcXeP8Avre/5+G33B01GmddB8a7aDUhNj/0yQX2P2xib9268PAb7p69vHWE/3vHG+4E2H2MP5Ir/DjG3jjYGRIrdKL/33vAbOJVG72RT9QCP6F/uvYVs4WD+efjvYu/ZusQvJPNz9QKP4Of0eBwC79Z9/3rd+Wyh7/IuwY3sfnwSCzw8QF81/Y1sYW9S/H+G8QmekdosTkhVniClpkjYoHuxtv7z5hv4rkP/rnHX+AFfgHLTNM/Z76Fs79XmDJLPEA38es3cIHfvqJbeMAscLpwiegYf6GjXzFgpZgwSnEcLV5jQBSbzjOqGM0naIFPTVQpnjv4bfYG8lWYYrN1hCoGVmzQMhMcMUqxsXSVXUYx9lDFGCPt6T1aZtp7jFLsLl/nLMRf7cDt6VdghXCZuSDuMDxbuU7EbOIQlv10xfgCiz1TZnrR6pVOiU3svANFMZikKca3Cfil9t8RZSY8VVyqf8wUmwn4OR2n/Ra+A7+FrQlTZo6VP94umU28QTubzeT29BH8Ejb9G2ILu5fqqzGK4WhqT/GGlLi3FaUQjJhic6tFMXCluGXKzCjuelPic+odoMXme8IKv6Nl5gC/Myecxl4vCvHPqTf087encEPqE0rhhgqlEAyYTbyCi02cofEJLjOMdREOYi73B0oxdvIqBqwUO5RSJC2wcUn8UOxco9/EsVoxHsfot/Bag1IIzLSnH5TXwh1S4p4UDanMjHgz77aFFhtVe4paF0GLUQpnpriUxCljaKDtaXOy2kX1J+Br/XeMdaFqSJcuTPy5nC14E1cVA1aK1pC5JSBNoNzTG7Sz+bFsaDz9AF/ZvsnkkCbBWOAe+ttnxQKHTe4J45C+RxbY2GVWuAeW0+X2FG5IW4x14a5YF2oYxciYt5nJ0lKVQjBziPb0HLUCxz8XLvETLTNNwuR205VCsM90NlnyNiJLY7qZfXSBbN6Gtqd/iw1aZlqZsjQEM4rxlrfhWZp+pRBQigGHpsLQgE3uQ/1KIZgxmwjnba8TGvfoFlJZWg8uM3OYvK3zi8rb8CztF1Nm4q0LNUzeRk5o4FMXzBYeJ1gXaqi8DTU0gp2nxhP65/AZpVjO0gDMTGi8KMZndAuNKYXATN62+Rt1n3JmaQhGDI0mukC91oUaTjHQTURpU0pBl5k5jAXeQS1wEP+AydJYpRBweRtaIiECziHNUGbmbBvJ2xCoLC3czrrARp+b0ECLTTrk1EXmLTSlGOkUoBQCptg4aHuaSusXcdXMZWZOxPjDw7aeYhNQUxfdjEoh2DeStyXDZWm4daGmBMUoSikEVN4GGxpJtHVMXTCcmZjQSICbusjWkMqMGMsGztti4bI0N3bqgoEZB3PgvC0ObuoiPUtDiFxmQiPIt4lBwExdODmVQrDNdDboAHEM7Wemm8nekC7BKIaXSzGCHeZLeKxrgY1dRvbhvE0FlaWFuRpSGSN5m2qBRrI0BGpC4zyzYuieumDYZ9zTzIpBjQH38jakMuQAcbZNDDSMAWfHTN4mYzBLQ2AscAe1wOUtPCSuQGZpCGYGiKUt1DMGnB0jedsCZrM0BOpE9Dnd2ZjO0hC4CQ1WMagsjZi6YDAzofGKuakLBsY97cAnoue0mTHgfA5pEpShQbWnVJamxbpQYy5v47I0rQ2pjCnFKF8pBNQA8RCd6Xv5d7rHgLOzzWziM6oYPnOCuavNulBC5m3YJhaXpSHsMlENmLdRWVrXmFII9E9oFDF1waD/RHTuE8y6ofI2wNCgDozkztIQuCMnqb8xqCzNsFII9E5oFDV1QaHzRLSeE8y6GTHfxNvkTaQc0tCAdaGGmtBIHAfTdYJZN1zelmCBBy0mS3MLUAoBY4EnTWhQUxeaTe4UiHNDjhf7GyNoMlmaU+QCqWdoeLEnon3m4WuhdpM7GSpvi1EM6uFrBTSkMiP83uImNMgsrTClEDAnotV5G5WlASeYddNnHvGmak+5hlR3loZATWgo8jYuSyuoIZXJl7eVnaUh5BsgLnAMODuMYnSWDI3WBfOjqWilEHATGlKx4bI0vVMXDFTeJikGpxSFNqQSXN62MKHBTV2YytIQmAmNxbyNy9IKbkhlshkadloXaqi87W1Cg5u6KK3MzKHOt73mbVSWVqB1oSZifgvPB4iDgMjStI0BZ4c/EW36BLNu6LzNriwNgcrbXhSDem68+SwNgZvQ8C2ZumCg8rbzf4s4wawb6sjJHvFvNR0YyQ+VtzE/KYrJ0hCYCQ0Cw1MXFFR7ilJyQyozMrGJ3cId0iSYcTB0gWU3pDKR/o9pkVkaAmNoQJRoXcSgexPdshe0AnMiGkDHCWbdaFUMq5RCwJyITl+hVUohoCY0kindulBDtacpWNOQyjB5WyLlZGkIVN4WT0lZGgJjaCRgh3WhZkNHsQltVAoB8wTiOIinAZcBM6ERQwlTFwwRcyJavYVmjhbqI7di2KsUgpztqZUNqQxzIlq1hVY2pDLUkZNlSpu6YKDytiUsyNIQmAHiJYodA84MNaEhb2GZUxcMzISGvIUWWhdqqLxtYQurUGbmMBMai1todUMqk6k9tbwhlclmaFSkzMzJkLfZlKUh0IphsXWhhjY0bLYu1JDuqaUOaRIRucJKNKQyVN5mX5aGwGxiWPbNZoI431b0uTRdwIZGBawLNXDeZmeWhgBOaFg2dcGAGRoVsS7UDJBN7JY/BpwDwALX+DTgMgAmNGycumBIVYzKKoUg/XxbhawLNSmGRqWsCzUp/wmf7VkaQmLeZn+WhpBgaFTOulCTkLdVIUtDiM3bKpGlIcRNaFg+dcFwqv6c9qqvFAJ13laZLA1B2Z5WvSGVUeRtFcrSEBSKsS5KIVgxNCpocifTX/6YumtUZuYsGRrVti6UyIqxVkohkCY0qjN1wbDQnq5NQyozW1jh2jSkMm+GxhpYF2r64bzYuOEalpk5r08gLuppwGXwxz2tvEOaxO6fFVZu6oJhGq5fQyoTudadYNbNwIJH6hhmPRzSJNZWCmtqampqampqampqaqrNf0nu73u6pXLjAAAAAElFTkSuQmCC;fontSize=13;fontColor=#1B1D1C;" vertex="1" parent="1">
          <mxGeometry x="204.45999999999998" y="130" width="60" height="60" as="geometry" />
        </mxCell>
        <mxCell id="upPlrhv5ZUz3ryXjEpxC-23" value="" style="shape=image;verticalLabelPosition=bottom;labelBackgroundColor=default;verticalAlign=top;aspect=fixed;imageAspect=0;image=data:image/png,iVBORw0KGgoAAAANSUhEUgAAAXgAAACGCAMAAADgrGFJAAABEVBMVEX///88S0w4Rkc1QkM+qbw2Q0Q5rrtCpb06rbxAp71DpL0xtbowtro+qLwxPT4qvLk1sbtFor4ovrglwbgsurlBUVJIn77v8PAjw7gvQUIjNTdLnL/k5eXDxcbr7OyHjY0eLjCzt7fa3NxTXl/n8/YmOjzBxMQVKSrw9/kxm7kAwrPO7uze8vK95eYuQkRHV1iip6iOztXS1dV7g4Rud3ii1dvG4+llt8e93uXg7PN01s1IwcBexsZYvsSYnp9bZmd7ws6Zz9iLx9OaydiC29Ka3tk9xr5wzsyo3t5rycpBvr+L1NTF6Oix3+KY1Nh1x81lwMhWtsNOr8EAFRcAHB53u81grsaq0N6Kv9Mek7ZepMSzG/rtAAASiElEQVR4nO2dC0PayBqGQwQFlUhbkIXVAkoEtrReEKRbRdSzW3uxXratu/7/H3Iy39wvCUEiaM3bs6dkZhImT768880EqGVNrP+1Jz9GrPH15x9/vJl1H56jPO4x+RkIuP8Wk5+2/vzjt9/+QP/F5KcqxB0rJj9Nce4x+Wnqz99ExeSnJZm7p5j8VKRxj8lPRQbuMfkp6M9Xr16p2L2ir7Pu168uxP2VzB6242WbhxXlTunTV3/NumO/uGTuXH/PumO/uD76cMdG8yoeYR9Ihy89mbh/QbVfXr6MyT+IgLsRPaptv3oZk38QUe4eeYU94P4bqmLykYtzF+MeXYWPqPovUhyTj1gqd0Gous22YvKR6nDFk5k7zFk/kI2VmHyk+rCy4kcejOacYkeNYvKRiXA3sm969U2gzhSv20SkwxVRLyX459AAIj0mH7Fk7hgx5f4BNXj7Um0Rk49AH/IqVsF36hYYjVYTk59YbwLAr4DRfNTL8x9m3e1fQe2P+RUzfMD7VY33vKcvs+70r6Hmed5E/iUsShqw5/Pns+7yE9e3On31VRtiV1bwoqQBez6PcvnmzLr95HWYz39i06G2h1iOe1T6xoQ9n0cX7DAeYe+pw+Vlj+FnbhvnK6LlKEaTF4Wq8vlfgnyRamrv+Bm4w1DJHmW/OUTs8x/Pzz8KRpNXBaNuPr/8dmqdjUAbVHKx7b4DNdaMexW3Kse267qJ48peNP3wuC8z9Nw26l+EkbOd16EjoQWcNtr9CZEvNjDg0ju5fLuAVTKBf10pvUvg+sS7TiT9OFrmwomKYbD8YMSOk5q3y0+LfPEdIVyQyyn4dwbwNUodyFei6MaRgl12HKK2D/dldH98W35a5IulYPCGiK+UCoISgwh6Ica7gP9QwXhoou79QVfo0/LTIj8++Mo7kXvBjgD80ZKBO2YvZSpvdeyIOyQ1eIxYXlq+mLw/01DRHdNq1t2CDH5n4j58XvKkxzzgl+akbQN1r+VnVEf28o70NMj7gic27qrgC9zfEwnbTpQmBn+0tGQin4fAlymixYQ8uRugAeiTRZKaZXykJ0Gegk9o4LFU8DVmTYnSdmcwqOxvTdgDwt0Q8wjtN7X510Ma7EyozVfO/TGRL7qEY0KvMYP30zEN+MRmNAk8425Ej21EVvtLXm6DxtNzjt3To1k0iww8G4sTm9H07Ci3JEkjb3qW3TyXmqCk5lLkfvRoUhuGd1LwexS8uzG68Wg1cwp3A3k+kfqU/yIsX/IWaFu4cbT8f4aKDHyN5JKJ42g6ltPJq+wZeMjUxeVLETwL+EfjMqAgq0kUoCIc+IENrSPJ3pHaOYReoy9wh0S+2Wx/Y67P0V58Rs4OSQ3xGJb2N79pw/IsFAg+MRZ43LpUi6hnu8aY5+wvUaMvy7KE5ctPy7Co00RWs8uK25feYR8D+cjAV6IDX8+BieRyfuiX0DwUtWlrvr+sP/W45DnkxREc9DGQf4Tg67ncFfq7jSH5sIf0ROcOZm5+1tf8lmPanbSTE+vxga8jMBCk3wLIH0EDegOoN8Slnr68ucqJuj/5ta1BpVMZ1EZMVl5v7VQ6ncpOzS/Ji9zjJ5yv1jEYyA6Pcgy9Sh8bjflmgAsjo7/IqQpNvloClWEBpLhTcEsl27ZLJbdUee23T3FnGzfD7WT2xy4ckHJP4OPz50p+4Au2smSwaScMKnWsdXoE/S7YJvvY6myrnZsHLtdoo57j5GXBHXFkIk4lWf2Rxj03H5Y8OQlYedoReHlFrs9q1EBqlki5x+Lyyr6Rl8uuoi942jIYfKpjWfTt7X2lZ6/LtO9K19vzSAhMF20KgSoFPRjNRRD3S9nn67sq9/mw5AmGuQGKVZWW6SHbXqKkNEvY4iUKDV4xIR286TgJ2+tTJUU2ykrfarRrrny3Yu4YPXiFaMwCeVTXDMDeNQyvFzL20OQJhlTFKqS0s3T1WctOWWslX6KR4NkBRoE3HgiB36PXzlWMn763LU9zGXcgj0qaukcskWzwytfe/T7MATk85x6SPDkHe//YdJ5ldewcGLmD9U4PvEU3UsotaTb/dnpeJA9Y9FFxKQdG81Ybb7H09ZjeFVtMQBml8B7pMORpX20aLLZ4vkroWDWBuy01ZW6zP2dLNbBll0eDVwfXbfk45EBwhQfUUkrSIdio64ofzvG4pyX0PVR6qZHPYaMRXT+H/8sJHnOBJwPk0vE51NtrAXz6NDx4fB5uaXuz4Lr8dMvSY4kNBs0uuZv7+5tuiTWlaDubIFaONwsaeNsHPHvHY7Q2Rh+PJNiqfEfshytlvZWSIVzaaaR5UahYN5td8XoAb/Cf3NIV/8wNjKXoFRtUd9nyZfuScU+HiHkBvO3izLC5zofZkuTyFI43vtYgBpq1Ag2+lJxiULy2+oahwcswZfegjc3dE9ti7jL6IaroqeCNhR5Z5jG9KyhAizltocFVjzZodgl2T0MjbUEcfOmY36AD5kBiQrzDPFSA3KHkJWLFyMDPmcBTr7HFnJTdB2V+Ioy7RB5CWDEbwKdh517SpUVoCH7LW6DjdVmr3nU6JHkGfk6K2H2S4tglIYOivjInOf8xaVoSP2gUHXhjxK8xxkLrnZJ27/XSojh5vlpGBYuSSlbOY7kt1KDVHLY8M09TSL5OuRuOvOuNX7YaOyh6oFA6s5qLW0oXA5G0oaVdkgrx7mbwth942wQeKlx5lrpNWoszpU0bF/KmvWRaJk/ZwwAp+QoqEA1EdO+eNEOF53482qmu2VWyuunkaPIuThZsV1mcKdHydeFkSZEyU6+U9EN4V4NIfUNWo4En+Y8K3vimO7R/3ArZgas0LnpJBTwPe7CQXTyZRQLzMXpMs5uT1SQt5yXunrnP89ynd5D0NFTPXRQFr04C91PkhNkcZY2e2JzSdI9UiCPdQ4N/XaXNWbpUI6fCnKaHTt6PPIRzjk6qwGj48q7ZY4R7Y14T3E/pIXOc+ukI8n7g9ROmQVbSPjRKKlKC9T80eGszpZaTCQQLlV42mfRHD6tldEoLUcyMhnvM1ysNO7hUXcNOk5n0dZ91sX+THapnz0UxjAbPTmxdacohGPCGBp/wAe+YwdP45jkBCyF6w9f7JwdZM3nvD2QiJ4LxXM8j+wjwGHJZvKqeH3bQieA4B+rpM4UHT0lWte9sdMglEdI4hjelNh4XvE/EF6nX0KtNDU/Ozjz6pzcm+PNpcIVrNtR6ObgXztxjLuf5CECjnV6kruoykjyLYYep+35DLTR4BqxUfC2rSNsKzBiXhwJvHSs34IA2NDwxaXeHNxp8mMDWh93uFbIWzz1yuzxUrwXs8iiKrtfQnzpBf9PXeyHLF7x6i28w8yirmqMVPK0JAE9rVPApM3gfq2Fe45CFMto71zKr2esOZTzStP6am7M3AVUSFlHo4lwHQEfYPWWTp3WtD6JCR/w6A++rMnf/0eBTivuPC57dOZj0GjmsOKm2eso+Hv2TA05IWHCsyx4TINQmiHuSKpsNXCoLHfFbIcDzu5zhnRi8n9WwwR7fZzuu1gfLus3enPa19dx6fxcm9kMDjv51MHac1KT9gl3gnsz6D6xIjx68X8SzDjkwfSCWn5Kdpp/1lDw46Wu3fftiqLHwPCY9gjs85Oj5Ug/P/cHBq7OtkeCrYcFbLt4jhQaLJjmqozwa8cjDXY/o94JNtz1MB2KHMMdJzchoH83dKpPejwTPPD7l+Kk6XfAdh+9Bw6KsTjJQzHMcw27PL7+Tac7jhyfpeTVLh6RmFPUQ3D3wSCbwXqFXIYBPYSUqfuqIWQ05rgk8Po4GHksDj4sN4GmP0MOvjpOC/uo5DXYbQTfDbttAv+9r25IgqRmFPQR3i+KsKuXaCe/RliUrhAj4lAk8qVDBzwWCLxs+SUaq0Cp1Cb9UnQZJI4/p6+zpoBso1HAk9hDcR4JnJ/yaomyE+bWBqYCndY3iBjmo5jRI/QwiL7M/8XOcdv80iD5a4qkHQYcBJQT38OCtEiFTDvNVpGKD4H1I8HsU99aOi4+pGiYWkOdRn70eNa30Uh4f+ig17wVx994nE4b7GOCPqfmE+Uo7w/uQ4GksOPvH5IVP1yj5LOIyNH5xpqmVttWZridYhOkmfWI9Ce8SjrtVxV2eqyrl+gmTqErNOSEOGwCe3gsRgK+QLjl0X7+bkZD3xB9W3Erz2mEybUg4pXWG5AkuPE2aoBPsYbl74LGq2jnhcn7CGw3StGz4TKX6AdcibWyIeFKhgScdUcBr/RC0QY9Fe+Z7mh75TCZ7wFcNT7LyYnkbw0sf6AknrDN4dcygrv2xZzM/fPsgKzx4a9uh56d/jlj9/CgDr90erEaZ09r3AG/J3INMsJ/J8FWr3g/ESAZ84lEnM8+0Id2v9/lHCepakkTvp0xo7uOAr5UpTO2j7dtOWSFP8Wqr9+OCd4LAD1wRvK/TIHGU/Rvwewjgfr3Z7J3CjXAjs0wPL3y/RTk0Uvewh/UZayzwlk1D3klIODfmvIqy/Gk/5kvq8nik4GWvCTP41E8JJUDUJekO1Bj8w7TGZklTA04dcQ8d7wHgy/oJrzPjdhrc59c6DYAjk08QYI6thLwveMcMPtBqrAKNBdRkdLrVO8jQYRa+ukfwYbvvag4CdYi+vsZ2O7zJCsqAxuA+FnirU+ZnWe7U9jb2tgabVXruDXHQ7VATcKr7g0Flkx2Ggnd8wCu/SWbsB9cO71Gw04AyRB6pW7R9QAM328ObJvIQ1skDfXG92bsdQqgT7AvjcB/LaoTx1QPnlKueyqzEkb7+UuMm4JTL5eoDgV8T3kZ7rq6pTslnbtBmXwhZfAP4gOfXRhNKeTLjx/uYEW8VU8KtLUvxlGZValnWwSuJph/4YKuxNtnbhHAaTh5+JTsjgAdq/QDy2SQ/inbY/tnBePHOwTeUcp9IKxaEe1siq3p5RWp4f/DBES94TSPMr0zUF8AUztDrH8x3kCDJ+UHnt0m+tpMFqxFWYHrZjGf770O8W5CqjuMxcBwDeMd4wmQoxewc8pfTUL8H5uXYjjjwTQje8QNfbOATCOM0SJg8etVjvoOHR0g3s4FCsJunGeLppkE3vKrkIYYOHpfrJ7yeqmpPQGzDquCaUxZaCOBJkQaedEQFrx5A0THZrxzyVybqCwstSBEziiCge4Hg0V3RF3bxLuLB2T3p/1PF+kcpr3zH5d8N6wNbm40qg1quNjbNUIr7Ddqq/J2Dp++ozO/LtCMy+E6D9MMPfI2EQSinQaovQIJyqoLP3OLibCZjYM5GhhNlrwVPP80Db6DW97DUkN0gFevGX5x9XetsQ1bjFDo13y8iWxuDbYc04iPA1jqR0hGiLXms2CDNt8y/fIvWhjF47SvkvoJPd71vaeCBq5XVy5lQ/Q+tdGHccXVShfsF5of+meb98lhOQ4UiVSUIOeZ7f+5Qr8f74pS5Pw41qdP43RFmnS1gZST6kOycaBeECgFu8lpyiOfJnVl8uJyGqtlaXGAS4hdyxBs/8Oi6vEfNFzJ872n7zGPRJkl6xnSa3qJAnuNfQHV1n5BfgKRG2W0xxFdaf0XtNe7lNGhwXfTYoz+SAOOtSn4BBzm6H844cu9/i8+Vu7VN8tWQvx4qCMiDRPAtSAx/LhiFqn4Q6litfyM+n6ei/VHTqwBx8hj/IqfbNGFfhKoFcZ/WM433rQSdoFXvs7tCnuDHq2UtA3ioEfd5hvG+ttnZLzTY0sW4QyvR+9YLHX0Lr5bpFYsoqakL4FtnUZ7S09Da97KwEOT4f7ogWEbyi7A0byhHV6THwT9H7tZaQ8DuNO79Q3FG8mApPc2HWiipuX3e3GXw1Qn+mZx664WGHpvNv1oxuhN+0NbPk7sEvjrRzz0j8liLiy9ExNaifEVeLKLCn6TxM+Uugm9M+M9C1V+IWoT//4kqeNID1wQXtp43d2vjHzKqNhKmD2aPJZk85gpL82ctqRAnNc+bu1UcHNteXrMdyT8/ZyIPq2U/pSJ0MXqt5809YtVbGvmfWjlOalox9yilk8dwb4VyGHH/XY25R6r66uoos2nB9irx/1gRySPvsUd/mFBxk4X8KpjP6mrMPWIBeVF4Bazfottos96KuUeupkYeluZ/0C1Iav6LuUcvjfyqWAqX4SweVx9CGnmyWobBo6Rmgk/sxQqQSv4/vFrGwz/WA0mLeVgtg1c/Z923X1sqebxa9h9JamI9nBTyOIs5+3319zideWCp5GE8vSN/x3pANVd/J0IvVu9QWf2/Sb//EWu0mne/iwKP8f3ZzlgRSiYfB/sUJZG/m3VvnpPu4pCfkQTyMfep6i7mPiPdxdxnpLuY+4x0F3Ofke5i7vfQ/wE64SqLwmv5YAAAAABJRU5ErkJggg==;fontSize=13;" vertex="1" parent="1">
          <mxGeometry x="470.25" y="140" width="112.24" height="40" as="geometry" />
        </mxCell>
        <mxCell id="upPlrhv5ZUz3ryXjEpxC-24" value="&lt;font style=&quot;font-size: 16px; background-color: rgb(255, 255, 255);&quot;&gt;CloudFront&lt;br style=&quot;font-size: 16px;&quot;&gt;&lt;br style=&quot;font-size: 16px;&quot;&gt;&lt;/font&gt;" style="sketch=0;points=[[0,0,0],[0.25,0,0],[0.5,0,0],[0.75,0,0],[1,0,0],[0,1,0],[0.25,1,0],[0.5,1,0],[0.75,1,0],[1,1,0],[0,0.25,0],[0,0.5,0],[0,0.75,0],[1,0.25,0],[1,0.5,0],[1,0.75,0]];outlineConnect=0;fontColor=#232F3E;gradientColor=#945DF2;gradientDirection=north;fillColor=#5A30B5;strokeColor=#ffffff;dashed=0;verticalLabelPosition=bottom;verticalAlign=top;align=center;html=1;fontSize=16;fontStyle=0;aspect=fixed;shape=mxgraph.aws4.resourceIcon;resIcon=mxgraph.aws4.cloudfront;" vertex="1" parent="1">
          <mxGeometry x="441.89" y="570" width="60" height="60" as="geometry" />
        </mxCell>
        <mxCell id="upPlrhv5ZUz3ryXjEpxC-58" style="edgeStyle=orthogonalEdgeStyle;rounded=0;orthogonalLoop=1;jettySize=auto;html=1;exitX=1;exitY=0.5;exitDx=0;exitDy=0;" edge="1" parent="1" source="upPlrhv5ZUz3ryXjEpxC-26" target="upPlrhv5ZUz3ryXjEpxC-27">
          <mxGeometry relative="1" as="geometry" />
        </mxCell>
        <mxCell id="upPlrhv5ZUz3ryXjEpxC-26" value="" style="shape=image;verticalLabelPosition=bottom;labelBackgroundColor=default;verticalAlign=top;aspect=fixed;imageAspect=0;image=data:image/png,iVBORw0KGgoAAAANSUhEUgAAAToAAACgCAMAAACrFlD/AAAAsVBMVEX///8eiP8Agf95uP8AgP8Ag/+qzv8Xhv9ETlmXwv91tv9IUVz6/f/o6eqUmZ5JUlxwtP9OV2G7v8Itj//09PW00//g7v/t9f+ytbl6gIdjanPZ291aYmvm8f9urP/FyMrB2//X6P89SFOrr7Nipv/0+f9udHxUn//L4f/DxciYnaKFipA4lP+92f+hzP/f4OKLvP9Fmf9Xof92sP+TwP+Xx//t7e4zP0zQ0tR+hIuLkJbbUj2+AAANH0lEQVR4nO1dCXeiyhIGBEFBEcEtYiLua1yijuP//2GvqrpRNpOZe899mtDfORMEGmg/q2vrakaSBAQEBAQEBAQEBAQEBH42rEd34DvCCo6j3cpd7UalmSDwL9A7uIqm67oM/zRF3vYe3aHvAmurajJBZ381dSsk708QrDTiS9E0XYO/yJ/mBo/u1jdAQwGudGV3DMawNw6OU3ag8eiOPT2KQJSujqJCFryqwJ36/rA+fQ+sVbQNSQnruyB46vohPfouCNCqZui1HnCna0LffQJkyG1lnBjjmdX/vT/fByUNRmuTPjYbjRiFPfBUtNJDevUd0AJ6lCJ93CqKoh+j3lxDBVqzBFIAcAShm7JPKrl2btQy7IXY3QfoM5WZgh3aWWBP3TevZwNFlt1Hde3JAdxwS2C5YC1GCkleYRyeBz6V2cN699R418IRCdSBgK1dDMI0OfTyYDxrx8d175nxCsqMSRWjTrIOGoazyo6N4hlI5eiRHXxewIDUmAnl1IFLMqIAlgUSY1CAuwf274kBCk5m7siVOhA1zKPoLh2H88IrzoIFzHC+ItSBCkRLS4bWDTkUiOMedQ1B3ZdYZQ5YVxED9ktkmIlm1Ey0hJm4hw/w2/r0KXROtpRdV6YspEDn5PWB/XtiFIG6A31i1DVcjaYlQpe4BOdFqjgTsUBMdqcsELtNhmEgJrKd2VhB+M/CiZ3OZhKVkQj//wgwYrkdKKo6JZ36kbNTXYSwdzHGVCfTZiVdUeRYdq6owlmR6ryHo3KdvOmt1zGecMJHEUJ3HytUcFkVJph7F07dZwjAkdPltBkNcEJMb2ZcIRCij1PYWjFxtIiMKv1HdOgboYE5JmUfTaTP9lhMIYpOvsRMp+qcVWnWGlvj1qy0ojBW7z+6Y98AzR1xReVh4KKwIrGdCCP+CCXG1600UTk8ukvfBq3jirGnY3HiqiQ84b9Bs7HH0p3RR0O4JH8NjGg/sk7MDqPdavp6/Ez9zUrQBsvf/6POPTduyYD4YVfF4nYYyuruXrFicXVts8qjT1NEDy+p5YKdcjMgujrK0oLMRF/bTPO3dACpS8YVfY38Fk2TWWm7Jqc1ITmGMm9DDObOsUHqErnNGYUVq2PQslqzLebf9VSyADOisuaWsE1Qoja5C36JulhFXY/E6SqI1hYDXnccuwqrP/VbStQ6KPdqbH8wimzlSWS0TXG0Rm1mAwatVo5dtQfjwufVGNbYJmcTaURddERiSawW9zYaMDpjUz19VZYTbfrQRs2Xk0IWFmf+Q001TVTEIqevYAyizt8I2myjbSxJKmh5Ky5Dv26v31agNJVrYQVivFdXY6mJZvh2sAfXyDflZ41Ut0cZZi1X2g5ntI9rWvc07VuUyYsImLXTZKVExdmRKtm1EmsDig8zB1jzmKulPkWqj2WenOJ+FGEsUqK4iboNmaOlT1gScOg1GXofvE2P2Nxjm0a0rCAnYNRhbCCTiwsUKk00FuqHZE2BFQWV2hpHrBICl5IFuNJMBeU2wjYFiYpVEnb4h6MYVmW/y4rOMnfamC2f+CB5QlakGV91fIXaY8bj9RWZo9HbVOO25MfjSh1I2ohLXQ/X8ci0poKxAgMad0PwKkZcsYI7nLAgt1KHGAfrKa/WGZGcceZYfuU1xEpmRuOV2mjcJUHjsU0/4OciRp0UWVaBo/UaH7zGLOz1GuQ3ZE4qw9Fc5Z6S1AUqryGz9mQFCFimot58tua1zmykqnt+EEvOlFxlAJLUWSsQMOae9a9e2gH95kgjLKotJtrcyZn+YCSpQxdOTuRAArS0/ehFGHLEJawJBkPN1XhNU2dh4ckuWv3fwiP72FW0Wjuahxqv8lfok6JOmmFaZHWTqRnl5uIyNkPfZXVLpszy+NaANHXSFv017YOvtkMrqqeG4jHW5hXdwZwN10zqJMwLy5rqTvc7WY3njK8oKdc2LmuTu7L3LOooL8zDBxQuOSuF2aCloGF0oeWw0CeTOqm3h5AsrKl4HWdcB9ZjFGmTOd/4w5FNHTgbh6muqIq8P96fYA3bTEu5coVD3KMOYI1b46+WKFrj3pdtfio+oU7gcwjq/jEEdf8Yn1L3J1osr5qOZh0yJ2NaxdeVrLm7j8Z9bqzg/VAoFw7FIJf8zbSstPi4oPN3x2qJRWQ3WOtyrVwuFArlcq3Q/297+ZTAtOU+ebAvh+EEFaSssuL6ZqFWQJTpby2Hr+Yd48xMIlzgbxjT3JWrsVK79NT0rAacgdgVDvQX/uQsbyJRjUlicVMRmVNHayS01dhhjVjqBVkBilyNv192dqS93HFXvL7OjoMqEyNv8lzTEvf4eGyhnBVubQJUeuW8xbEtLSF2mO91o0xh7asWL2I6lIG5KFM92C/nbiEtVndFijbflVT9K879x2rncLiW422acKiWtyxAC4XqNmRvs103bBO1c8dyoZa0HI08il0DJyNG3KsN1Iw3TtCbUW+COUaHJOkFW+ioZGf2fjA+cBJ/xwYgBmbp8odRbPZ/ViuU0yn393IOjSwVQOgyvSYGaGQkzYgGa0b6q8jfQmm1EI1MkpDQXJUmMtCr6zX5Y93E+k2Uv2Ot1sBRWKshkX0mi71yDQHjtZYOHsBQlPM2KYY4qnxhMa+vk0DpH4ArPjRnrEz2nUVd6P+mfThsm7tZMUTAl3zxskPpvVbrw+ZQo6HJpW4N8T5CSF0c/RFfx850XUBKzgqIo3f+erH1O+IgdF0SrcbHfiV/bWEDYWGz0FQzXtXZwtLYL/y6Mfp1uUx5XoHRRFLbl7X4mxQhmkiNzVxGE3EUlVTN0jq5/oti2HjAGuQxhk0CMydyKnMSX3VYwsxJtE0Ph2vOhS58WdZtPL6T1xL341o0JRELzYDL3EWwKRQpLzyl/zqmV6T/qi21XJNliQ8zliU+0F7ehyuiyCYkFN1la//1jCoxlhfGoIz+gAzm2jG5YubyGTGKLpRdljz1trXCDbVt3rLr92BtZXpPFsqem/Z+GfoFjMtA3sq1Qr7WX3+OcaM8deXVdLv+xM1tNo7bwvYo3mqURr6DAwEBAQEBAQEBAQEBAQEBAQEBAQEBAQEBAYFnRmXerm+ue+2Xc7qJt6nQ9sS3EUxePrv1ZvPJ2RuGL3/W7rngXUwD0PH4/vDXPDy1qYYf64MLbdt8G8GL/cnNfdvxMk90q7EfqPqr+xddfhZMzM7b5rwYhD/7eXH9FufBgn+qm5w6u5q8/sW5f++u7dsZMgyYD9qx3UVKmp8fC3tJ225G37vGv6RuYWZcQJgb7czj3wgnxzlFditdABtilXO37Vy65zOKTZy6LpOkzRlbAnWb4fAt8+4vvuX7t5vXoZ3Hbj20F3DrbvKhePP2sM1HAJw/tYd173ZmOI/29rGY253o7uLXwDSYghvCR98ZADykjglPnah7MejbTAyU1Be/PgBd+ZKh0yog0VUjHP9Vc2AbA/yl8Cm+DXc26cQSdgdhq4th2AZ7muX4Z7iz7XvhGdMcDJ7GnizsRXQXLOjCZBLkVSpzs3qqVJCfur0EY7mpDIm6CdP9HYdR59S90yL+EzC0jbr0Fg76pdnpet55UsFbn9r2kN8azXDlEhK8MDsbbzMxhrjj+/6bV+mwLtaN3xXP61afhrqLndQ5Q+M6+CK6znHQDBuOk6bOoUYTI20jO2YFNAJzXs7GhB1kZT0JXbfgV3sm3RrUCG58BwdAxaErLxkPeCh+23UJrepiEX6VCHXnCHWTIWKZQZ1NctA2h8l7n+g7d9j5iz2PnrtD3ZvNdOpvE9Wpz57j+0h3lXr6RFiS1A0HthMOuGzqYrouIXW0czZTHl/dxMuHJpE0sWMm/A514Q+wMJEnnwnsC1F3Np1l/WlGq4S6Dvvqnc72b37kDnVRC5ugjs50uZMTwdIZgn1usx/lJWbJ71HHeebbGHXS2wR8d/95fJo6/8abf0HdHanzQD+CFTUc26Nr/kTqbtSlpA5wOlcd42mG7cZh/fo76mzmnER1XT2l685m54xYkpZbxsOKO9TNuQe9ZLouQZ2EyvC39Cz4TSMWqMvQdRszHIRx6pYmftGKw6WObtAxkhFX1WQCwr7tmxHzXm6/CiGk7mSQB+0xSc2grmJkOEEPQsWxh57kDRl1ngdjZW55zAmFITc/0ec4dW2740mViR/6dWfU75PknX1uGDyHfNqJfQFtd7rwFIzpnz32GHxa1Tyzh17MC/RmyYQvRl0VowrvYqQM+ePQ9Q3bMQ0fheZtYJq2Y5sGd+7rtmEMMHSIZ04837b9wbBD0YTvDAe+b/jJGLg7CLNRkwHKsdcxTGg34NZiCDp/4LB74kNN0/h1olbOi2N0kCyIJqgp81E6EIG82MbzjFfEvLqsskCxUg/Bv6D3Bp9hu6nzsJVtveGyepbe6KJ5XTpflsNUHBZeAiTW2Q9xXiwvwyvDJ7j1nDUM4YW94SqDnccn4DPPi8tykZ2HERAQEBAQEBAQEBAQEBD4yfgfLhENtFM5ToYAAAAASUVORK5CYII=;clipPath=inset(6.21% 21.33% 5.56% 18.67%);fontSize=13;" vertex="1" parent="1">
          <mxGeometry x="466.8900000000001" y="265.68" width="93.34" height="70" as="geometry" />
        </mxCell>
        <mxCell id="upPlrhv5ZUz3ryXjEpxC-28" value="S3" style="sketch=0;points=[[0,0,0],[0.25,0,0],[0.5,0,0],[0.75,0,0],[1,0,0],[0,1,0],[0.25,1,0],[0.5,1,0],[0.75,1,0],[1,1,0],[0,0.25,0],[0,0.5,0],[0,0.75,0],[1,0.25,0],[1,0.5,0],[1,0.75,0]];outlineConnect=0;fontColor=#232F3E;gradientColor=#60A337;gradientDirection=north;fillColor=#277116;strokeColor=#ffffff;dashed=0;verticalLabelPosition=bottom;verticalAlign=top;align=center;html=1;fontSize=16;fontStyle=0;aspect=fixed;shape=mxgraph.aws4.resourceIcon;resIcon=mxgraph.aws4.s3;labelBackgroundColor=#FFFFFF;" vertex="1" parent="1">
          <mxGeometry x="307.45" y="665" width="50" height="50" as="geometry" />
        </mxCell>
        <mxCell id="upPlrhv5ZUz3ryXjEpxC-36" value="VPC" style="points=[[0,0],[0.25,0],[0.5,0],[0.75,0],[1,0],[1,0.25],[1,0.5],[1,0.75],[1,1],[0.75,1],[0.5,1],[0.25,1],[0,1],[0,0.75],[0,0.5],[0,0.25]];outlineConnect=0;gradientColor=none;html=1;whiteSpace=wrap;fontSize=13;fontStyle=0;container=1;pointerEvents=0;collapsible=0;recursiveResize=0;shape=mxgraph.aws4.group;grIcon=mxgraph.aws4.group_vpc;strokeColor=#248814;fillColor=none;verticalAlign=top;align=left;spacingLeft=30;fontColor=#AAB7B8;dashed=0;" vertex="1" parent="1">
          <mxGeometry x="771.89" y="227.84" width="260" height="152.16" as="geometry" />
        </mxCell>
        <mxCell id="upPlrhv5ZUz3ryXjEpxC-34" value="&lt;font style=&quot;font-size: 16px;&quot;&gt;Amazon RDS&lt;/font&gt;" style="sketch=0;points=[[0,0,0],[0.25,0,0],[0.5,0,0],[0.75,0,0],[1,0,0],[0,1,0],[0.25,1,0],[0.5,1,0],[0.75,1,0],[1,1,0],[0,0.25,0],[0,0.5,0],[0,0.75,0],[1,0.25,0],[1,0.5,0],[1,0.75,0]];outlineConnect=0;fontColor=#232F3E;gradientColor=#4D72F3;gradientDirection=north;fillColor=#3334B9;strokeColor=#ffffff;dashed=0;verticalLabelPosition=bottom;verticalAlign=top;align=center;html=1;fontSize=16;fontStyle=0;aspect=fixed;shape=mxgraph.aws4.resourceIcon;resIcon=mxgraph.aws4.rds;labelBorderColor=none;labelBackgroundColor=#ffffff;" vertex="1" parent="1">
          <mxGeometry x="1410" y="290" width="60" height="60" as="geometry" />
        </mxCell>
        <mxCell id="upPlrhv5ZUz3ryXjEpxC-40" style="edgeStyle=orthogonalEdgeStyle;rounded=0;orthogonalLoop=1;jettySize=auto;html=1;exitX=1;exitY=1;exitDx=0;exitDy=0;exitPerimeter=0;" edge="1" parent="1" source="upPlrhv5ZUz3ryXjEpxC-24" target="upPlrhv5ZUz3ryXjEpxC-24">
          <mxGeometry relative="1" as="geometry" />
        </mxCell>
        <mxCell id="upPlrhv5ZUz3ryXjEpxC-56" style="edgeStyle=orthogonalEdgeStyle;rounded=0;orthogonalLoop=1;jettySize=auto;html=1;entryX=0;entryY=0.5;entryDx=0;entryDy=0;" edge="1" parent="1" source="upPlrhv5ZUz3ryXjEpxC-41" target="upPlrhv5ZUz3ryXjEpxC-23">
          <mxGeometry relative="1" as="geometry">
            <Array as="points">
              <mxPoint x="380" y="160" />
            </Array>
          </mxGeometry>
        </mxCell>
        <mxCell id="upPlrhv5ZUz3ryXjEpxC-57" value="" style="edgeStyle=orthogonalEdgeStyle;rounded=0;orthogonalLoop=1;jettySize=auto;html=1;" edge="1" parent="1" source="upPlrhv5ZUz3ryXjEpxC-41" target="upPlrhv5ZUz3ryXjEpxC-26">
          <mxGeometry relative="1" as="geometry">
            <Array as="points">
              <mxPoint x="380" y="301" />
            </Array>
          </mxGeometry>
        </mxCell>
        <mxCell id="upPlrhv5ZUz3ryXjEpxC-41" value="&lt;span style=&quot;background-color: rgb(255, 255, 255); font-size: 13px;&quot;&gt;&lt;font color=&quot;#000000&quot; style=&quot;font-size: 13px;&quot;&gt;Github&lt;/font&gt;&lt;/span&gt;" style="dashed=0;outlineConnect=0;html=1;align=center;labelPosition=center;verticalLabelPosition=bottom;verticalAlign=top;shape=mxgraph.weblogos.github;fontSize=13;" vertex="1" parent="1">
          <mxGeometry x="341.89" y="205.68" width="60" height="60" as="geometry" />
        </mxCell>
        <mxCell id="upPlrhv5ZUz3ryXjEpxC-42" value="" style="image;sketch=0;aspect=fixed;html=1;points=[];align=center;fontSize=12;image=img/lib/mscae/Person.svg;" vertex="1" parent="1">
          <mxGeometry x="153.53" y="575" width="37" height="50" as="geometry" />
        </mxCell>
        <mxCell id="upPlrhv5ZUz3ryXjEpxC-43" value="" style="shape=image;verticalLabelPosition=bottom;labelBackgroundColor=default;verticalAlign=top;aspect=fixed;imageAspect=0;image=data:image/png,iVBORw0KGgoAAAANSUhEUgAAAXgAAACGCAMAAADgrGFJAAABEVBMVEX///88S0w4Rkc1QkM+qbw2Q0Q5rrtCpb06rbxAp71DpL0xtbowtro+qLwxPT4qvLk1sbtFor4ovrglwbgsurlBUVJIn77v8PAjw7gvQUIjNTdLnL/k5eXDxcbr7OyHjY0eLjCzt7fa3NxTXl/n8/YmOjzBxMQVKSrw9/kxm7kAwrPO7uze8vK95eYuQkRHV1iip6iOztXS1dV7g4Rud3ii1dvG4+llt8e93uXg7PN01s1IwcBexsZYvsSYnp9bZmd7ws6Zz9iLx9OaydiC29Ka3tk9xr5wzsyo3t5rycpBvr+L1NTF6Oix3+KY1Nh1x81lwMhWtsNOr8EAFRcAHB53u81grsaq0N6Kv9Mek7ZepMSzG/rtAAASiElEQVR4nO2dC0PayBqGQwQFlUhbkIXVAkoEtrReEKRbRdSzW3uxXratu/7/H3Iy39wvCUEiaM3bs6dkZhImT768880EqGVNrP+1Jz9GrPH15x9/vJl1H56jPO4x+RkIuP8Wk5+2/vzjt9/+QP/F5KcqxB0rJj9Nce4x+Wnqz99ExeSnJZm7p5j8VKRxj8lPRQbuMfkp6M9Xr16p2L2ir7Pu168uxP2VzB6242WbhxXlTunTV3/NumO/uGTuXH/PumO/uD76cMdG8yoeYR9Ihy89mbh/QbVfXr6MyT+IgLsRPaptv3oZk38QUe4eeYU94P4bqmLykYtzF+MeXYWPqPovUhyTj1gqd0Gous22YvKR6nDFk5k7zFk/kI2VmHyk+rCy4kcejOacYkeNYvKRiXA3sm969U2gzhSv20SkwxVRLyX459AAIj0mH7Fk7hgx5f4BNXj7Um0Rk49AH/IqVsF36hYYjVYTk59YbwLAr4DRfNTL8x9m3e1fQe2P+RUzfMD7VY33vKcvs+70r6Hmed5E/iUsShqw5/Pns+7yE9e3On31VRtiV1bwoqQBez6PcvnmzLr95HWYz39i06G2h1iOe1T6xoQ9n0cX7DAeYe+pw+Vlj+FnbhvnK6LlKEaTF4Wq8vlfgnyRamrv+Bm4w1DJHmW/OUTs8x/Pzz8KRpNXBaNuPr/8dmqdjUAbVHKx7b4DNdaMexW3Kse267qJ48peNP3wuC8z9Nw26l+EkbOd16EjoQWcNtr9CZEvNjDg0ju5fLuAVTKBf10pvUvg+sS7TiT9OFrmwomKYbD8YMSOk5q3y0+LfPEdIVyQyyn4dwbwNUodyFei6MaRgl12HKK2D/dldH98W35a5IulYPCGiK+UCoISgwh6Ica7gP9QwXhoou79QVfo0/LTIj8++Mo7kXvBjgD80ZKBO2YvZSpvdeyIOyQ1eIxYXlq+mLw/01DRHdNq1t2CDH5n4j58XvKkxzzgl+akbQN1r+VnVEf28o70NMj7gic27qrgC9zfEwnbTpQmBn+0tGQin4fAlymixYQ8uRugAeiTRZKaZXykJ0Gegk9o4LFU8DVmTYnSdmcwqOxvTdgDwt0Q8wjtN7X510Ma7EyozVfO/TGRL7qEY0KvMYP30zEN+MRmNAk8425Ej21EVvtLXm6DxtNzjt3To1k0iww8G4sTm9H07Ci3JEkjb3qW3TyXmqCk5lLkfvRoUhuGd1LwexS8uzG68Wg1cwp3A3k+kfqU/yIsX/IWaFu4cbT8f4aKDHyN5JKJ42g6ltPJq+wZeMjUxeVLETwL+EfjMqAgq0kUoCIc+IENrSPJ3pHaOYReoy9wh0S+2Wx/Y67P0V58Rs4OSQ3xGJb2N79pw/IsFAg+MRZ43LpUi6hnu8aY5+wvUaMvy7KE5ctPy7Co00RWs8uK25feYR8D+cjAV6IDX8+BieRyfuiX0DwUtWlrvr+sP/W45DnkxREc9DGQf4Tg67ncFfq7jSH5sIf0ROcOZm5+1tf8lmPanbSTE+vxga8jMBCk3wLIH0EDegOoN8Slnr68ucqJuj/5ta1BpVMZ1EZMVl5v7VQ6ncpOzS/Ji9zjJ5yv1jEYyA6Pcgy9Sh8bjflmgAsjo7/IqQpNvloClWEBpLhTcEsl27ZLJbdUee23T3FnGzfD7WT2xy4ckHJP4OPz50p+4Au2smSwaScMKnWsdXoE/S7YJvvY6myrnZsHLtdoo57j5GXBHXFkIk4lWf2Rxj03H5Y8OQlYedoReHlFrs9q1EBqlki5x+Lyyr6Rl8uuoi942jIYfKpjWfTt7X2lZ6/LtO9K19vzSAhMF20KgSoFPRjNRRD3S9nn67sq9/mw5AmGuQGKVZWW6SHbXqKkNEvY4iUKDV4xIR286TgJ2+tTJUU2ykrfarRrrny3Yu4YPXiFaMwCeVTXDMDeNQyvFzL20OQJhlTFKqS0s3T1WctOWWslX6KR4NkBRoE3HgiB36PXzlWMn763LU9zGXcgj0qaukcskWzwytfe/T7MATk85x6SPDkHe//YdJ5ldewcGLmD9U4PvEU3UsotaTb/dnpeJA9Y9FFxKQdG81Ybb7H09ZjeFVtMQBml8B7pMORpX20aLLZ4vkroWDWBuy01ZW6zP2dLNbBll0eDVwfXbfk45EBwhQfUUkrSIdio64ofzvG4pyX0PVR6qZHPYaMRXT+H/8sJHnOBJwPk0vE51NtrAXz6NDx4fB5uaXuz4Lr8dMvSY4kNBs0uuZv7+5tuiTWlaDubIFaONwsaeNsHPHvHY7Q2Rh+PJNiqfEfshytlvZWSIVzaaaR5UahYN5td8XoAb/Cf3NIV/8wNjKXoFRtUd9nyZfuScU+HiHkBvO3izLC5zofZkuTyFI43vtYgBpq1Ag2+lJxiULy2+oahwcswZfegjc3dE9ti7jL6IaroqeCNhR5Z5jG9KyhAizltocFVjzZodgl2T0MjbUEcfOmY36AD5kBiQrzDPFSA3KHkJWLFyMDPmcBTr7HFnJTdB2V+Ioy7RB5CWDEbwKdh517SpUVoCH7LW6DjdVmr3nU6JHkGfk6K2H2S4tglIYOivjInOf8xaVoSP2gUHXhjxK8xxkLrnZJ27/XSojh5vlpGBYuSSlbOY7kt1KDVHLY8M09TSL5OuRuOvOuNX7YaOyh6oFA6s5qLW0oXA5G0oaVdkgrx7mbwth942wQeKlx5lrpNWoszpU0bF/KmvWRaJk/ZwwAp+QoqEA1EdO+eNEOF53482qmu2VWyuunkaPIuThZsV1mcKdHydeFkSZEyU6+U9EN4V4NIfUNWo4En+Y8K3vimO7R/3ArZgas0LnpJBTwPe7CQXTyZRQLzMXpMs5uT1SQt5yXunrnP89ynd5D0NFTPXRQFr04C91PkhNkcZY2e2JzSdI9UiCPdQ4N/XaXNWbpUI6fCnKaHTt6PPIRzjk6qwGj48q7ZY4R7Y14T3E/pIXOc+ukI8n7g9ROmQVbSPjRKKlKC9T80eGszpZaTCQQLlV42mfRHD6tldEoLUcyMhnvM1ysNO7hUXcNOk5n0dZ91sX+THapnz0UxjAbPTmxdacohGPCGBp/wAe+YwdP45jkBCyF6w9f7JwdZM3nvD2QiJ4LxXM8j+wjwGHJZvKqeH3bQieA4B+rpM4UHT0lWte9sdMglEdI4hjelNh4XvE/EF6nX0KtNDU/Ozjz6pzcm+PNpcIVrNtR6ObgXztxjLuf5CECjnV6kruoykjyLYYep+35DLTR4BqxUfC2rSNsKzBiXhwJvHSs34IA2NDwxaXeHNxp8mMDWh93uFbIWzz1yuzxUrwXs8iiKrtfQnzpBf9PXeyHLF7x6i28w8yirmqMVPK0JAE9rVPApM3gfq2Fe45CFMto71zKr2esOZTzStP6am7M3AVUSFlHo4lwHQEfYPWWTp3WtD6JCR/w6A++rMnf/0eBTivuPC57dOZj0GjmsOKm2eso+Hv2TA05IWHCsyx4TINQmiHuSKpsNXCoLHfFbIcDzu5zhnRi8n9WwwR7fZzuu1gfLus3enPa19dx6fxcm9kMDjv51MHac1KT9gl3gnsz6D6xIjx68X8SzDjkwfSCWn5Kdpp/1lDw46Wu3fftiqLHwPCY9gjs85Oj5Ug/P/cHBq7OtkeCrYcFbLt4jhQaLJjmqozwa8cjDXY/o94JNtz1MB2KHMMdJzchoH83dKpPejwTPPD7l+Kk6XfAdh+9Bw6KsTjJQzHMcw27PL7+Tac7jhyfpeTVLh6RmFPUQ3D3wSCbwXqFXIYBPYSUqfuqIWQ05rgk8Po4GHksDj4sN4GmP0MOvjpOC/uo5DXYbQTfDbttAv+9r25IgqRmFPQR3i+KsKuXaCe/RliUrhAj4lAk8qVDBzwWCLxs+SUaq0Cp1Cb9UnQZJI4/p6+zpoBso1HAk9hDcR4JnJ/yaomyE+bWBqYCndY3iBjmo5jRI/QwiL7M/8XOcdv80iD5a4qkHQYcBJQT38OCtEiFTDvNVpGKD4H1I8HsU99aOi4+pGiYWkOdRn70eNa30Uh4f+ig17wVx994nE4b7GOCPqfmE+Uo7w/uQ4GksOPvH5IVP1yj5LOIyNH5xpqmVttWZridYhOkmfWI9Ce8SjrtVxV2eqyrl+gmTqErNOSEOGwCe3gsRgK+QLjl0X7+bkZD3xB9W3Erz2mEybUg4pXWG5AkuPE2aoBPsYbl74LGq2jnhcn7CGw3StGz4TKX6AdcibWyIeFKhgScdUcBr/RC0QY9Fe+Z7mh75TCZ7wFcNT7LyYnkbw0sf6AknrDN4dcygrv2xZzM/fPsgKzx4a9uh56d/jlj9/CgDr90erEaZ09r3AG/J3INMsJ/J8FWr3g/ESAZ84lEnM8+0Id2v9/lHCepakkTvp0xo7uOAr5UpTO2j7dtOWSFP8Wqr9+OCd4LAD1wRvK/TIHGU/Rvwewjgfr3Z7J3CjXAjs0wPL3y/RTk0Uvewh/UZayzwlk1D3klIODfmvIqy/Gk/5kvq8nik4GWvCTP41E8JJUDUJekO1Bj8w7TGZklTA04dcQ8d7wHgy/oJrzPjdhrc59c6DYAjk08QYI6thLwveMcMPtBqrAKNBdRkdLrVO8jQYRa+ukfwYbvvag4CdYi+vsZ2O7zJCsqAxuA+FnirU+ZnWe7U9jb2tgabVXruDXHQ7VATcKr7g0Flkx2Ggnd8wCu/SWbsB9cO71Gw04AyRB6pW7R9QAM328ObJvIQ1skDfXG92bsdQqgT7AvjcB/LaoTx1QPnlKueyqzEkb7+UuMm4JTL5eoDgV8T3kZ7rq6pTslnbtBmXwhZfAP4gOfXRhNKeTLjx/uYEW8VU8KtLUvxlGZValnWwSuJph/4YKuxNtnbhHAaTh5+JTsjgAdq/QDy2SQ/inbY/tnBePHOwTeUcp9IKxaEe1siq3p5RWp4f/DBES94TSPMr0zUF8AUztDrH8x3kCDJ+UHnt0m+tpMFqxFWYHrZjGf770O8W5CqjuMxcBwDeMd4wmQoxewc8pfTUL8H5uXYjjjwTQje8QNfbOATCOM0SJg8etVjvoOHR0g3s4FCsJunGeLppkE3vKrkIYYOHpfrJ7yeqmpPQGzDquCaUxZaCOBJkQaedEQFrx5A0THZrxzyVybqCwstSBEziiCge4Hg0V3RF3bxLuLB2T3p/1PF+kcpr3zH5d8N6wNbm40qg1quNjbNUIr7Ddqq/J2Dp++ozO/LtCMy+E6D9MMPfI2EQSinQaovQIJyqoLP3OLibCZjYM5GhhNlrwVPP80Db6DW97DUkN0gFevGX5x9XetsQ1bjFDo13y8iWxuDbYc04iPA1jqR0hGiLXms2CDNt8y/fIvWhjF47SvkvoJPd71vaeCBq5XVy5lQ/Q+tdGHccXVShfsF5of+meb98lhOQ4UiVSUIOeZ7f+5Qr8f74pS5Pw41qdP43RFmnS1gZST6kOycaBeECgFu8lpyiOfJnVl8uJyGqtlaXGAS4hdyxBs/8Oi6vEfNFzJ872n7zGPRJkl6xnSa3qJAnuNfQHV1n5BfgKRG2W0xxFdaf0XtNe7lNGhwXfTYoz+SAOOtSn4BBzm6H844cu9/i8+Vu7VN8tWQvx4qCMiDRPAtSAx/LhiFqn4Q6litfyM+n6ei/VHTqwBx8hj/IqfbNGFfhKoFcZ/WM433rQSdoFXvs7tCnuDHq2UtA3ioEfd5hvG+ttnZLzTY0sW4QyvR+9YLHX0Lr5bpFYsoqakL4FtnUZ7S09Da97KwEOT4f7ogWEbyi7A0byhHV6THwT9H7tZaQ8DuNO79Q3FG8mApPc2HWiipuX3e3GXw1Qn+mZx664WGHpvNv1oxuhN+0NbPk7sEvjrRzz0j8liLiy9ExNaifEVeLKLCn6TxM+Uugm9M+M9C1V+IWoT//4kqeNID1wQXtp43d2vjHzKqNhKmD2aPJZk85gpL82ctqRAnNc+bu1UcHNteXrMdyT8/ZyIPq2U/pSJ0MXqt5809YtVbGvmfWjlOalox9yilk8dwb4VyGHH/XY25R6r66uoos2nB9irx/1gRySPvsUd/mFBxk4X8KpjP6mrMPWIBeVF4Bazfottos96KuUeupkYeluZ/0C1Iav6LuUcvjfyqWAqX4SweVx9CGnmyWobBo6Rmgk/sxQqQSv4/vFrGwz/WA0mLeVgtg1c/Z923X1sqebxa9h9JamI9nBTyOIs5+3319zideWCp5GE8vSN/x3pANVd/J0IvVu9QWf2/Sb//EWu0mne/iwKP8f3ZzlgRSiYfB/sUJZG/m3VvnpPu4pCfkQTyMfep6i7mPiPdxdxnpLuY+4x0F3Ofke5i7vfQ/wE64SqLwmv5YAAAAABJRU5ErkJggg==;fontSize=16;" vertex="1" parent="1">
          <mxGeometry x="276.33000000000004" y="585" width="112.24" height="40" as="geometry" />
        </mxCell>
        <mxCell id="upPlrhv5ZUz3ryXjEpxC-54" value="&lt;font style=&quot;font-size: 13px;&quot;&gt;CI/CD Pipeline&lt;/font&gt;" style="rounded=0;whiteSpace=wrap;html=1;fontSize=13;" vertex="1" parent="1">
          <mxGeometry x="549.9999999999999" y="30" width="120" height="60" as="geometry" />
        </mxCell>
        <mxCell id="upPlrhv5ZUz3ryXjEpxC-55" value="" style="swimlane;startSize=0;fontSize=13;" vertex="1" parent="1">
          <mxGeometry x="160" y="100" width="890" height="300" as="geometry">
            <mxRectangle x="150" y="100" width="50" height="40" as="alternateBounds" />
          </mxGeometry>
        </mxCell>
        <mxCell id="upPlrhv5ZUz3ryXjEpxC-27" value="" style="shape=image;verticalLabelPosition=bottom;labelBackgroundColor=#FFFFFF;verticalAlign=top;aspect=fixed;imageAspect=0;image=data:image/png,iVBORw0KGgoAAAANSUhEUgAAAO4AAADUCAMAAACs0e/bAAABBVBMVEX///8Dm8Y5TVQAi7gkuOsAqtq/2+AivvM3U10An8wsQ0swX286S1EkPkY6RUk1SlHj5eZue4Dx8/M7Q0aLlZmvtbgcy/siPEUujapVZWshvegAj74mqtAjt+EopckAr9d9iIw1ZHMkgJnU7fEcj60peI4rl7cKo8cxYW4slLMzWWU3UVnDx8kvh6I0boA6Pj+Sm56kq67KztBicHVIWmDa3d7p6+yepqlpdntSYmi5v8Ecz/8rk7gfiKozcIcMhrCFnaK309mZx9YHLzkwfJg8OjYico8XfaGDx95svNdVstGvwsXe+Pus2ufM3+F9kJS+5vCVrbKJpq5Gn8Fqr8pTcHloipO0G0WcAAAQWUlEQVR4nO2djV/iOBrHIcKCIWmAggVEKaiogAi0FeWQmd1xZm5vZ19m7/b+/z/l8tKWviLO0sp4+fGZF2ma5tskT568mslISUlJSUlJSUlJSUlJSUlJSUlJSUlJSUlJSUlJSUlFqvbQDMisvnaaEpQOSUDam8YloOvVAOG3jVv8x5FHDeWt4x6pLaWlnBQ7V+3u6f8BrtICLXAyOOm2xxL3TUniStw3I4krcd+M/g9xb7lXNewM3oBXVd6ouwr1mU+OxKdFP9877gcNbxIB4MKr0gt6RPpdkgn/NmGAFK8Q8P2oAKB6hcDWuDUNzhJN+rcIo/G5VwOlceqqf3qtDH2Xx1vnbl0DRKsnm/iXC6OLzjn9NDo39E+jc3XbaZ+0O502/ef05LSlFE8aPMB5+/zy/LK3Le6dBoYIaZOEk/9SUdzL4iVoq+3bjtq5Zbi965vGTe/6oj8+HbeU4YnaQZeIBhr0r863xr0n6mEeIFxLOP0vFMMdXA7bSlvtKPTDcPs3jcbNde/0QuCiDmgDilvqd/vb4loaWhVyOYC0edIEL9LWuIMX4dagks9RDZE2ShrhJUoIF6BugeHmqSkvJ83wAiWDa2FlyXEL2VvykDjE9koGdwpVXpYp75OCp4lTbK1kcHUICjmbd4Dg/vidyeA2SdfBzWVVuD+tbzK4gDdDdvaWEEwcY1utcW8prOq4GQzXcTOUDuLt7lX/6npLXIieXFyavXiROMeWYrjdy6v2oF3sDOiH4jb6jevrRv/mtNe+YE4k/bJ9RQON++Ntc1fz4hYAqSTOEaN6zS9CfWbmINufzpXabq11dKIMfZd7iAQiiDS72If79HqluYahTwAgn4C/Q4jC1/33w8iM8xXm3FJhroY1qk+n0/rIShUXBtMfwt38c+DH6HJqorEH91AhehNj+0Vj3Jyn5mjVIOp41VB7bCKzZX+Ouuql9/KlUhQXnQlPtee7vRiNWyFFD25eBYQgReXlRVUQgZqRkifNcGmbIizP+cX5udo76Z6UWsXWsFU8GjLc3nnvptdrXJzTLmCb4hZbg9aABhq3V22KSw0WtW2XzLYV43AnUMl5cZFaXD1mD/P5/GH28VNRRQQbqRRqhjvkndfu+fh8xXEHJ8OW0rptqUe3DPfi5qLXo3+dUy6Gq7RQC50UO102Eklxr/oD3kVm7VYM7gwrWQ8uemKkax0+IUQ+pDHU4eBSn+Hayd01rhqN6xln9uEqcbhVv63KhzUEMI2Ru3RwM/cEbKRdKul4linhjrDyWIinpd3gdJrilHAzJkEbMreEtHT8yrRwR5rTS4igHStQT4U2NdyMThRuraLyVoHNdGhTw72rEPBxGUW7HCJopkSbEq6la9SNWhbCtNmxCvB9WrQcF10O+Rh5tzHmuMUTRGE/tj4efVzj9lxcZ8KzZLsZpX6RRsA6yLeRuHf1JoVVV7kw7WOJOVQpjl0xXDYH0m/3L/uXl5cUt3XKPkfiQ3FdsRBK8R/0axGk1W5R3Da9tX0uJlJOgrjlUc3EkCjqKl+wSzL3HbnzOKA9LKglPTHo6542Cbhp0I+txlgZ9/vX7qc/UHruRXq5h4bisq0xGtuXWSSNxpCYbtS6YWoaZKzFm7xrpbIfxdyhwroGGNSS7gxVNW/3lKDABOezPz9zmayjZnGrSvcxXyisW6CVHQJruDlJYQa0rAEwZComrEFp9bTM5woFn3ehEIN26+uLWUp9XDaiz59NE5K4Qo7yo4LTnSRinTH+5FyacmxxkYBUaTMj+Aq4rk+hwJSnTBavgOs2tANE0pgx8TyD4h6+ELfwfJDtaJehCZNkGt2q4cX15+7zME8bghSWy+ciyHsyNzAKP0+m33enmc7Ql1t38zbsanNiC/mBOo59J4VHVXmGN0+bo5jM1T8kU5N1SHBNvFjXMuc57KOiDPKx6S0U8k8KAggsC1FhCvmuAoDSzUZetWk/Kco4a2eub65zASABSVTlGgYAUPd0VhXtrsAt5JYrlSYXqU/5QjjB9Bvqw98iwKQWH3P+IPSn7FhcRerwKZuLjCL/GfAnDB4PaZvrMcvWHLA1eMTcee1dmJAnGRBMjMkUoqfD7PLxaTXgkyAivcXV8jC3djxy+cPlUxeoTgA+d9K9ybq+Se5wuQKeq0hBpafHrNd3yeWXTyW2zs6+vUgTMLLKZWu2mFZYx0GkCU52CFwd6VDz7GSDmGa0Ilx0nxT6pQKo51cqDYaIO/EoKBZkSEMMiigcgYhCRUNPHN4gDI1oQhh6koQ1o74Tj/KuXjOM+0pA1GUuvYIGtOAGk2Lr3jAq86RmESqkeCx0mKiyxz6VkJbqZJ+jOUQHQtkkdeDT8aeUBs5Doi3R5+Rx/bQH7xSS2vibX1WMVscJ8x4HaI+Lr1SUM2zZTzFh3IMg7Qq93uqiOVTe2clIBDaYtQfHnxWS1sB5WJaGPiWYvUFYWnFROtOZMXpwS/Mz2fvPn35+KWwoa6mGSHvNbQhT6Njmjdn7ry+/fD3742W0EbDHtNv3qou2qxCVjp/n/VLRHr58+fXvwR5Q/yKt+b046cQxVhuK888/aoD88v5sa9iockyN8muaKaGytkX2/vwL7U1AvC1uJCzzpsjrnyRSWWdvLO/pGetBVbbEjYTltIn04F8mb/bG8v762735+5d/fTssL8lkH/bC1ahxjuel3ZlH+s8/z778sQ1tDOz+0GYygKB1ugKobBTi9tNhlnXhnmWNrrOctoTI8PVLMteMFmeWJKEs76Bms4+fn8YDpChQUR63KcQbYA8OBgi+vpVyVINiRAUUB1RF4CzlZbOR5vvrrWA3sB6/AwgazycjNTVJYDEyW3JrGr9//fGMOhd/pxQfcJOMtL3a8HcHCfj69euf77n+/Pr1xx9+O6OkZ1ynf4OVqqTs3fZVSyMPP/h0ttam7H2O9fgzLcjgtbrzsRppxPzxh2jiuPb2OVQKe7BSAK7sjZFaa6EREOT9gRVppm9BtbOWpLTE8aWivPBriFdk809ucaYt1TagHPbdgNba+z3MWq4RJvh9NO9v/9mW0QNbUhAk+5m1XBYk8K9wgeZavhR2hWg53qvmJ6RqE8YW6JfwUliFwlb2aTdypCZabAZvy3t8/LnEYO/3rvWJkGVCgn+PBP73dhn7qciWN1a+B1imOaYlOgr4WXt1TFlZxkKY+PLGHepOpyUaVn45C/H+9BwrWwepmfV9bXtiVK7QHMbD9+EsjizQtC1+93k1tNetfi+l2KtyjWCaeJP2iTZmMCf9VCoqIl9r+3dyz7ZaGGLfpVl572X+7Sd7GODggIKuSkO2+oAtfDCm32O+elRdVAC2u79k8Fflv//9nWtVKpWKQyTWLDNSs/K9ozqy6jpfaG4vGLGXYiP+P4w12NSns/0YcduZqtZiXqs0h0QsLicAmEZFn9dH1hsDDarK9NqJkJKSknr7mjVNfUcxVe736/y4CN1phGB9JzF9IETbowO3IjXCbLntLmKqQxrTa69GeE4MF+xkA5PE3T9J3G+UxN0/SdwtFewMboFbLVvldHuQd3XdhBhjUJny0eAIXGt+D9gRYaZej+nAs3Edvi8G6As3+X7c8n0z4GLNdHoP1jTiuSeYuEWtYhi1nb0RPqbKdykRdvLXLAJ31NTWQXDUdEC1Bu0QNAgmDpUPd4api6V7blq426PYnq1IopEhdhXhXR0vWNMI8IhoFZouH+6dEQwSmsarQ+gNAaC99s+LO9LYvestFuUm9kULw0dklJvuk7WdwN6Z/nSyxw7n0Is78qeKBwnszatooRDzIO6MhyHu6qK6FooWB5YeeYPs5Agny91rx+qu+wPw4NZtFMJDOPsFfSs3m9AJwXa08UjsvRRr3JGIxt1RMllH694E/AvLam4QCHdy+NqdeH0Em5PFzBrNH7wZKYIsNLukGdORNVvUgI3m2fcjaAl+mFrlO2uks8pmH6Pt4trRuKdrz+1oob6w7sqzyVA82Xt4Uc15crM2me5kgNO0n+FObFhN6Me17GSuD2OpC4u0XmM+EbTAjaQ6NQx7RYKD69A6CxXsko0nbm7aG02haxZEqaK2bWdThyKhfsMz13y44oX4jjyvGtD7nXghMWdK2bhBWhEt8S+u0qG3tN8JWrK7KSYRY3DHklNXOW6d2+jgThCeMOeIC4OnPMaV4LjGKEg75REEV4DqxFNqKiQqyN8Rz1wSOg5qite4PBfCDQRHFAcL25kbU7fqooQGaDP8i+Cp8SNRKUQDa+FN0X6TeDnF4RgN4uDyh0bkXBW63/N3BuPsZn1tCjyLILkbAwMO1tRnzGrQfaE7EmeJ2nwn3izD5Q0wjqg+4gJ7Uyz/449uWeN6l3zyghpoSHWb1k4Pj3anp+jzpGhRdk/YJztdkVtNy+yNsON4eD4HMyrwjCBthhda3RdQmD93HSw3K7Fl5pvEimH0ttmJ41Ux7ujNl/zK3OGOncp1cH20YRbbtyPQiYi7sbv9lRCsekSfdVd3cLm5iKxALN9ZG8kLfvxv2bVx/YuXBYunilh292Ptmora/UKgzeK4kWv23B4Rr2ORJ0jpXtz4dNmW2V8qg7gjx6Nav7WFz2vfiTiuHnXFfVg8ri934w+Mr3sbF0cBXNsk+7p4LAU7PruK40Zuf2B2lwwzdg2NNBhNu1aXN1cyuzBDX+PO73HfYg37TLJQArjCtYm6whpe/iL4f/SIEMIgT9lW/djqzeSYKh9vlXhaQCOqdieBG7IYbnK45WS1uhb3RhZug8wbyNihBrch8vEabvvmmuRAMhLAzXCXKeJIUeHRsMImDGTElBZvmfkBRJPY1ptp7WZ4eevOAxyTDIL3J4HLnZtw9gqnSpgfYTJDlmi+9ra5zxxtAjKuqeKxeIoAv4ewzR38ykPoAUng2p3OgNNcNT0dE9GLCDpz4kbbu20Sp+hHiOM+mEFeO1oYNsm2ksC1+27E7xM1RQ9XFK8qDraIGTbiI5wC8ZPo3cVMB4v+bjWYv1XiZjqIXK6fCC5vEYBvvtkSiXB3/9tjCsTT+NoDZu6ok2GXyPVbq9adBb12974azN8Fduu0bZKrC+9i0URwna48NMVYeXVW0YJDRvd2iTNGVZGqB5HS9XEIYpSAjdiKIFaN7Rcse3EzTv7qzk0VZ4yPjy7TB2MIPR3iZHAzukg7YbsZjQdoj8z5BhFM+zvMgpjQHjP0Ft6RM2KIITBN9nd4JNLO3/Vt7hloPDR/sMdGJITrdDNZeSXOKKS/qlbdkWhPEH+FW6zHg50QoYFXh9ctFOtBQOdm7sgli0s91sDodniOoBIMAoNu1CwwieAOb3FckWmC19PjDExf+GxIYrgZq+l9LMEP4c7rgnjGnwnU9FA7WdU16Atip5yZJMeTqT4EpgMtw3MTwcBjDllTl9QRVjMd2L/+RyOV6IHOhQGdVdtm9J6Rcs3ETpCH9fF/9Mv1OCbF8w9qWrWh5vzaIX+BMTH8kNzuOWs0nc+nCyt+nLM6W9Ag9dGGEYbyaDqZzBczXySjheeORfiIPLYwejIdBQcIq/X597uJQUpKSkpKSkpKSkpKSkpKSkpKSkpKSkpKSkpKSkpKytb/AA5LpLeJetrlAAAAAElFTkSuQmCC;fontColor=#000000;fontSize=13;" vertex="1" parent="upPlrhv5ZUz3ryXjEpxC-55">
          <mxGeometry x="476.66999999999996" y="164.60000000000002" width="81" height="72.16" as="geometry" />
        </mxCell>
        <mxCell id="upPlrhv5ZUz3ryXjEpxC-33" value="&lt;font style=&quot;font-size: 13px;&quot;&gt;Elastic Container &lt;br style=&quot;font-size: 13px;&quot;&gt;Registry&lt;/font&gt;" style="sketch=0;points=[[0,0,0],[0.25,0,0],[0.5,0,0],[0.75,0,0],[1,0,0],[0,1,0],[0.25,1,0],[0.5,1,0],[0.75,1,0],[1,1,0],[0,0.25,0],[0,0.5,0],[0,0.75,0],[1,0.25,0],[1,0.5,0],[1,0.75,0]];outlineConnect=0;fontColor=#000000;gradientColor=#F78E04;gradientDirection=north;fillColor=#D05C17;strokeColor=#ffffff;dashed=0;verticalLabelPosition=bottom;verticalAlign=top;align=center;html=1;fontSize=13;fontStyle=0;aspect=fixed;shape=mxgraph.aws4.resourceIcon;resIcon=mxgraph.aws4.ecr;labelBackgroundColor=#FFFFFF;" vertex="1" parent="upPlrhv5ZUz3ryXjEpxC-55">
          <mxGeometry x="650" y="170.68" width="60" height="60" as="geometry" />
        </mxCell>
        <mxCell id="upPlrhv5ZUz3ryXjEpxC-49" style="edgeStyle=orthogonalEdgeStyle;rounded=0;orthogonalLoop=1;jettySize=auto;html=1;entryX=0;entryY=0.5;entryDx=0;entryDy=0;entryPerimeter=0;fontSize=13;" edge="1" parent="upPlrhv5ZUz3ryXjEpxC-55" source="upPlrhv5ZUz3ryXjEpxC-27" target="upPlrhv5ZUz3ryXjEpxC-33">
          <mxGeometry relative="1" as="geometry" />
        </mxCell>
        <mxCell id="upPlrhv5ZUz3ryXjEpxC-32" value="&lt;font style=&quot;font-size: 13px;&quot;&gt;EC2-Instance&lt;/font&gt;" style="sketch=0;points=[[0,0,0],[0.25,0,0],[0.5,0,0],[0.75,0,0],[1,0,0],[0,1,0],[0.25,1,0],[0.5,1,0],[0.75,1,0],[1,1,0],[0,0.25,0],[0,0.5,0],[0,0.75,0],[1,0.25,0],[1,0.5,0],[1,0.75,0]];outlineConnect=0;fontColor=#232F3E;gradientColor=#F78E04;gradientDirection=north;fillColor=#D05C17;strokeColor=#ffffff;dashed=0;verticalLabelPosition=bottom;verticalAlign=top;align=center;html=1;fontSize=13;fontStyle=0;aspect=fixed;shape=mxgraph.aws4.resourceIcon;resIcon=mxgraph.aws4.ec2;labelBackgroundColor=#ffffff;labelBorderColor=default;" vertex="1" parent="upPlrhv5ZUz3ryXjEpxC-55">
          <mxGeometry x="761.89" y="170.68" width="60" height="60" as="geometry" />
        </mxCell>
        <mxCell id="upPlrhv5ZUz3ryXjEpxC-52" style="edgeStyle=orthogonalEdgeStyle;rounded=0;orthogonalLoop=1;jettySize=auto;html=1;fontSize=13;" edge="1" parent="upPlrhv5ZUz3ryXjEpxC-55" source="upPlrhv5ZUz3ryXjEpxC-33" target="upPlrhv5ZUz3ryXjEpxC-32">
          <mxGeometry relative="1" as="geometry" />
        </mxCell>
      </root>
    </mxGraphModel>
  </diagram>
</mxfile>
